<svg width="28" height="146" viewBox="0 0 28 146" fill="none" xmlns="http://www.w3.org/2000/svg">
<path d="M17 35.704L9.575 35.704L9.575 32.1265L9.8855 32.1265L9.8855 35.5915L9.7325 35.3575L13.5305 35.3575L13.1255 35.5915L13.1255 32.3335L13.4315 32.3335L13.4315 35.5915L13.0265 35.3575L17 35.3575L17 35.704ZM17.144 28.5365C17.144 29.0165 17.0375 29.4425 16.8245 29.8145C16.6085 30.1865 16.319 30.479 15.956 30.692C15.59 30.902 15.179 31.007 14.723 31.007C14.375 31.007 14.051 30.9455 13.751 30.8225C13.448 30.6965 13.1855 30.524 12.9635 30.305C12.7385 30.086 12.563 29.834 12.437 29.549C12.311 29.261 12.248 28.955 12.248 28.631C12.248 28.208 12.3485 27.8225 12.5495 27.4745C12.7505 27.1265 13.025 26.8445 13.373 26.6285C13.721 26.4095 14.1185 26.285 14.5655 26.255C14.5925 26.252 14.6165 26.252 14.6375 26.255C14.6585 26.255 14.6825 26.255 14.7095 26.255L14.7095 30.6785C15.1205 30.6785 15.488 30.587 15.812 30.404C16.133 30.218 16.385 29.963 16.568 29.639C16.751 29.315 16.8425 28.9445 16.8425 28.5275C16.8425 28.1375 16.7585 27.7835 16.5905 27.4655C16.4225 27.1445 16.187 26.888 15.884 26.696L16.037 26.435C16.388 26.654 16.661 26.948 16.856 27.317C17.048 27.683 17.144 28.0895 17.144 28.5365ZM14.426 30.665L14.426 26.597C14.069 26.633 13.7495 26.747 13.4675 26.939C13.1825 27.128 12.959 27.3695 12.797 27.6635C12.632 27.9545 12.5495 28.274 12.5495 28.622C12.5495 28.976 12.632 29.3015 12.797 29.5985C12.959 29.8925 13.181 30.134 13.463 30.323C13.745 30.512 14.066 30.626 14.426 30.665ZM17.144 22.6426C17.144 23.0776 17.039 23.4691 16.829 23.8171C16.616 24.1651 16.325 24.4396 15.956 24.6406C15.587 24.8416 15.167 24.9421 14.696 24.9421C14.222 24.9421 13.802 24.8416 13.436 24.6406C13.067 24.4396 12.7775 24.1666 12.5675 23.8216C12.3545 23.4736 12.248 23.0806 12.248 22.6426C12.248 22.1866 12.362 21.7771 12.59 21.4141C12.815 21.0481 13.1255 20.7796 13.5215 20.6086L12.392 20.6086L12.392 20.2666L17 20.2666L17 20.6086L15.866 20.6086C16.265 20.7976 16.5785 21.0721 16.8065 21.4321C17.0315 21.7891 17.144 22.1926 17.144 22.6426ZM16.8335 22.5931C16.8335 22.2001 16.7435 21.8536 16.5635 21.5536C16.3805 21.2506 16.127 21.0136 15.803 20.8426C15.479 20.6686 15.11 20.5816 14.696 20.5816C14.279 20.5816 13.91 20.6671 13.589 20.8381C13.265 21.0091 13.013 21.2461 12.833 21.5491C12.65 21.8521 12.5585 22.2001 12.5585 22.5931C12.5585 22.9801 12.65 23.3251 12.833 23.6281C13.013 23.9311 13.265 24.1696 13.589 24.3436C13.91 24.5176 14.279 24.6046 14.696 24.6046C15.11 24.6046 15.479 24.5176 15.803 24.3436C16.124 24.1696 16.376 23.9311 16.559 23.6281C16.742 23.3251 16.8335 22.9801 16.8335 22.5931ZM17.144 17.301C17.144 17.598 17.0405 17.8275 16.8335 17.9895C16.6265 18.1485 16.3355 18.228 15.9605 18.228L12.6485 18.228L12.6485 18.633L12.392 18.633L12.392 18.228L10.673 18.228L10.673 17.886L12.392 17.886L12.392 16.68L12.6485 16.68L12.6485 17.886L15.9515 17.886C16.2425 17.886 16.4645 17.832 16.6175 17.724C16.7705 17.613 16.847 17.454 16.847 17.247C16.847 17.052 16.796 16.887 16.694 16.752L16.964 16.6665C17.018 16.7445 17.0615 16.8405 17.0945 16.9545C17.1275 17.0655 17.144 17.181 17.144 17.301ZM17.144 13.4341C17.144 14.0731 16.991 14.5276 16.685 14.7976C16.379 15.0646 15.86 15.1981 15.128 15.1981L12.392 15.1981L12.392 14.8561L15.101 14.8561C15.725 14.8561 16.1705 14.7481 16.4375 14.5321C16.7045 14.3131 16.838 13.9471 16.838 13.4341C16.838 12.9241 16.7045 12.5596 16.4375 12.3406C16.1705 12.1216 15.725 12.0121 15.101 12.0121L12.392 12.0121L12.392 11.6701L15.128 11.6701C15.86 11.6701 16.379 11.8051 16.685 12.0751C16.991 12.3421 17.144 12.7951 17.144 13.4341ZM17 9.67241L12.392 9.67241L12.392 9.33041L13.0805 9.33041C12.8045 9.19841 12.5975 9.01991 12.4595 8.79491C12.3185 8.56991 12.248 8.29991 12.248 7.98491C12.248 7.85891 12.2585 7.73441 12.2795 7.61141C12.3005 7.48541 12.3305 7.37441 12.3695 7.27841L12.6575 7.41791C12.6245 7.50191 12.599 7.59791 12.581 7.70591C12.56 7.81091 12.5495 7.91291 12.5495 8.01191C12.5495 8.23691 12.608 8.44991 12.725 8.65091C12.839 8.85191 12.9875 9.01541 13.1705 9.14141C13.3535 9.26741 13.5485 9.33041 13.7555 9.33041L17 9.33041L17 9.67241ZM17.144 3.78648C17.144 4.26648 17.0375 4.69248 16.8245 5.06448C16.6085 5.43648 16.319 5.72898 15.956 5.94198C15.59 6.15198 15.179 6.25698 14.723 6.25698C14.375 6.25698 14.051 6.19548 13.751 6.07248C13.448 5.94648 13.1855 5.77398 12.9635 5.55498C12.7385 5.33598 12.563 5.08398 12.437 4.79898C12.311 4.51098 12.248 4.20498 12.248 3.88098C12.248 3.45798 12.3485 3.07248 12.5495 2.72448C12.7505 2.37648 13.025 2.09448 13.373 1.87848C13.721 1.65948 14.1185 1.53498 14.5655 1.50498C14.5925 1.50198 14.6165 1.50198 14.6375 1.50498C14.6585 1.50498 14.6825 1.50498 14.7095 1.50498L14.7095 5.92848C15.1205 5.92848 15.488 5.83698 15.812 5.65398C16.133 5.46798 16.385 5.21298 16.568 4.88898C16.751 4.56498 16.8425 4.19448 16.8425 3.77748C16.8425 3.38748 16.7585 3.03348 16.5905 2.71548C16.4225 2.39448 16.187 2.13798 15.884 1.94598L16.037 1.68498C16.388 1.90398 16.661 2.19798 16.856 2.56698C17.048 2.93298 17.144 3.33948 17.144 3.78648ZM14.426 5.91498L14.426 1.84698C14.069 1.88298 13.7495 1.99698 13.4675 2.18898C13.1825 2.37798 12.959 2.61948 12.797 2.91348C12.632 3.20448 12.5495 3.52398 12.5495 3.87198C12.5495 4.22598 12.632 4.55148 12.797 4.84848C12.959 5.14248 13.181 5.38398 13.463 5.57298C13.745 5.76198 14.066 5.87598 14.426 5.91498Z" fill="black"/>
<path d="M14 146C13.6216 146 12.0556 144.87 12.0556 141.639L12.0556 137.466L8.51667 135.882L8.51667 135.921C8.51667 136.348 8.16845 136.694 7.73889 136.694L6.76667 136.694C6.3371 136.694 5.98889 136.348 5.98889 135.921L5.98889 134.839L0.0958535 132.406C0.037824 132.382 2.41737e-07 132.326 2.47195e-07 132.264L2.90896e-07 131.764C2.98854e-07 131.673 0.0788023 131.601 0.170024 131.61L8.32222 132.367L12.0556 132.367L12.5222 123.79L9.47964 121.75C9.43679 121.721 9.41111 121.673 9.41111 121.622L9.41111 121.074C9.41111 120.979 9.49669 120.906 9.59118 120.921L13.0667 121.472L13.7217 120.171C13.8364 119.943 14.1636 119.943 14.2783 120.171L14.9333 121.472L18.4088 120.921C18.5033 120.906 18.5889 120.979 18.5889 121.074L18.5889 121.622C18.5889 121.673 18.5632 121.721 18.5204 121.75L15.4778 123.79L15.9444 132.367L19.6778 132.367L27.83 131.61C27.9212 131.601 28 131.673 28 131.764L28 132.264C28 132.326 27.9622 132.382 27.9041 132.406L22.0111 134.839L22.0111 135.921C22.0111 136.348 21.6629 136.694 21.2333 136.694L20.2611 136.694C19.8315 136.694 19.4833 136.348 19.4833 135.921L19.4833 135.882L15.9444 137.466L15.9444 141.639C15.9444 144.87 14.3784 146 14 146Z" fill="black"/>
<circle cx="14" cy="114" r="1" fill="black"/>
<circle cx="14" cy="67" r="1" fill="black"/>
<circle cx="14" cy="90" r="1" fill="black"/>
<circle cx="14" cy="43" r="1" fill="black"/>
<circle cx="14" cy="106" r="1" fill="black"/>
<circle cx="14" cy="59" r="1" fill="black"/>
<circle cx="14" cy="82" r="1" fill="black"/>
<circle cx="14" cy="98" r="1" fill="black"/>
<circle cx="14" cy="51" r="1" fill="black"/>
<circle cx="14" cy="74" r="1" fill="black"/>
</svg>
