<svg width="28" height="148" viewBox="0 0 28 148" fill="none" xmlns="http://www.w3.org/2000/svg">
<path d="M17 37.704L9.575 37.704L9.575 37.3575L16.6895 37.3575L16.6895 34.0635L17 34.0635L17 37.704ZM17 32.3839L12.392 32.3839L12.392 32.0419L17 32.0419L17 32.3839ZM11.4875 32.2129C11.4875 32.2609 11.4755 32.3059 11.4515 32.3479C11.4275 32.3869 11.396 32.4184 11.357 32.4424C11.315 32.4664 11.27 32.4784 11.222 32.4784C11.174 32.4784 11.1305 32.4664 11.0915 32.4424C11.0525 32.4184 11.0225 32.3869 11.0015 32.3479C10.9775 32.3059 10.9655 32.2609 10.9655 32.2129C10.9655 32.1649 10.9775 32.1229 11.0015 32.0869C11.0225 32.0479 11.0525 32.0164 11.0915 31.9924C11.1305 31.9684 11.174 31.9564 11.222 31.9564C11.27 31.9564 11.315 31.9684 11.357 31.9924C11.396 32.0164 11.4275 32.0479 11.4515 32.0869C11.4755 32.1229 11.4875 32.1649 11.4875 32.2129ZM17 29.9175L12.6485 29.9175L12.6485 30.318L12.392 30.318L12.392 29.9175L10.52 29.9175C10.211 29.9175 9.9545 29.877 9.7505 29.796C9.5435 29.712 9.3875 29.589 9.2825 29.427C9.1775 29.265 9.125 29.064 9.125 28.824C9.125 28.677 9.1445 28.5435 9.1835 28.4235C9.2195 28.3035 9.2735 28.197 9.3455 28.104L9.5975 28.2255C9.4805 28.3635 9.422 28.5435 9.422 28.7655C9.422 28.9425 9.464 29.091 9.548 29.211C9.632 29.331 9.7535 29.4225 9.9125 29.4855C10.0685 29.5455 10.2575 29.5755 10.4795 29.5755L12.392 29.5755L12.392 28.365L12.6485 28.365L12.6485 29.5755L17 29.5755L17 29.9175ZM17.144 24.7621C17.144 25.2421 17.0375 25.6681 16.8245 26.0401C16.6085 26.4121 16.319 26.7046 15.956 26.9176C15.59 27.1276 15.179 27.2326 14.723 27.2326C14.375 27.2326 14.051 27.1711 13.751 27.0481C13.448 26.9221 13.1855 26.7496 12.9635 26.5306C12.7385 26.3116 12.563 26.0596 12.437 25.7746C12.311 25.4866 12.248 25.1806 12.248 24.8566C12.248 24.4336 12.3485 24.0481 12.5495 23.7001C12.7505 23.3521 13.025 23.0701 13.373 22.8541C13.721 22.6351 14.1185 22.5106 14.5655 22.4806C14.5925 22.4776 14.6165 22.4776 14.6375 22.4806C14.6585 22.4806 14.6825 22.4806 14.7095 22.4806L14.7095 26.9041C15.1205 26.9041 15.488 26.8126 15.812 26.6296C16.133 26.4436 16.385 26.1886 16.568 25.8646C16.751 25.5406 16.8425 25.1701 16.8425 24.7531C16.8425 24.3631 16.7585 24.0091 16.5905 23.6911C16.4225 23.3701 16.187 23.1136 15.884 22.9216L16.037 22.6606C16.388 22.8796 16.661 23.1736 16.856 23.5426C17.048 23.9086 17.144 24.3151 17.144 24.7621ZM14.426 26.8906L14.426 22.8226C14.069 22.8586 13.7495 22.9726 13.4675 23.1646C13.1825 23.3536 12.959 23.5951 12.797 23.8891C12.632 24.1801 12.5495 24.4996 12.5495 24.8476C12.5495 25.2016 12.632 25.5271 12.797 25.8241C12.959 26.1181 13.181 26.3596 13.463 26.5486C13.745 26.7376 14.066 26.8516 14.426 26.8906ZM17.144 19.6964C17.144 20.0744 17.039 20.4059 16.829 20.6909C16.619 20.9729 16.3205 21.1844 15.9335 21.3254L15.794 21.0779C16.127 20.9549 16.388 20.7734 16.577 20.5334C16.763 20.2904 16.856 20.0129 16.856 19.7009C16.856 19.4789 16.808 19.2734 16.712 19.0844C16.616 18.8954 16.481 18.7439 16.307 18.6299C16.13 18.5159 15.9215 18.4589 15.6815 18.4589C15.4685 18.4589 15.302 18.5084 15.182 18.6074C15.062 18.7034 14.96 18.8444 14.876 19.0304C14.792 19.2134 14.699 19.4369 14.597 19.7009C14.519 19.9019 14.432 20.0984 14.336 20.2904C14.237 20.4794 14.1125 20.6354 13.9625 20.7584C13.8125 20.8814 13.6205 20.9429 13.3865 20.9429C13.1675 20.9429 12.9725 20.8859 12.8015 20.7719C12.6305 20.6579 12.4955 20.5034 12.3965 20.3084C12.2975 20.1104 12.248 19.8884 12.248 19.6424C12.248 19.3754 12.3125 19.1339 12.4415 18.9179C12.5705 18.6989 12.752 18.5219 12.986 18.3869L13.148 18.6119C12.737 18.8369 12.5315 19.1804 12.5315 19.6424C12.5315 19.9304 12.611 20.1659 12.77 20.3489C12.926 20.5319 13.13 20.6234 13.382 20.6234C13.559 20.6234 13.703 20.5754 13.814 20.4794C13.925 20.3834 14.0195 20.2529 14.0975 20.0879C14.1725 19.9229 14.249 19.7384 14.327 19.5344C14.438 19.2494 14.5445 19.0034 14.6465 18.7964C14.7485 18.5864 14.8775 18.4244 15.0335 18.3104C15.1865 18.1934 15.398 18.1349 15.668 18.1349C15.965 18.1349 16.2245 18.2039 16.4465 18.3419C16.6685 18.4799 16.841 18.6674 16.964 18.9044C17.084 19.1384 17.144 19.4024 17.144 19.6964ZM17.144 15.5745C17.144 15.8715 17.0405 16.101 16.8335 16.263C16.6265 16.422 16.3355 16.5015 15.9605 16.5015L12.6485 16.5015L12.6485 16.9065L12.392 16.9065L12.392 16.5015L10.673 16.5015L10.673 16.1595L12.392 16.1595L12.392 14.9535L12.6485 14.9535L12.6485 16.1595L15.9515 16.1595C16.2425 16.1595 16.4645 16.1055 16.6175 15.9975C16.7705 15.8865 16.847 15.7275 16.847 15.5205C16.847 15.3255 16.796 15.1605 16.694 15.0255L16.964 14.94C17.018 15.018 17.0615 15.114 17.0945 15.228C17.1275 15.339 17.144 15.4545 17.144 15.5745ZM19.34 12.7831L17.0855 11.8021L12.392 13.9981L12.392 13.6156L16.6985 11.6131L12.392 9.77707L12.392 9.39457L19.34 12.4096L19.34 12.7831ZM17 7.90191L9.26 7.90191L9.26 7.55991L17 7.55991L17 7.90191ZM17.144 3.35191C17.144 3.83191 17.0375 4.25791 16.8245 4.62991C16.6085 5.00191 16.319 5.29441 15.956 5.50741C15.59 5.71741 15.179 5.82241 14.723 5.82241C14.375 5.82241 14.051 5.76091 13.751 5.63791C13.448 5.51191 13.1855 5.33941 12.9635 5.12041C12.7385 4.90141 12.563 4.64941 12.437 4.36441C12.311 4.07641 12.248 3.77041 12.248 3.44641C12.248 3.02341 12.3485 2.63791 12.5495 2.28991C12.7505 1.94191 13.025 1.65991 13.373 1.44391C13.721 1.22491 14.1185 1.10041 14.5655 1.07041C14.5925 1.06741 14.6165 1.06741 14.6375 1.07041C14.6585 1.07041 14.6825 1.07041 14.7095 1.07041L14.7095 5.49391C15.1205 5.49391 15.488 5.40241 15.812 5.21941C16.133 5.03341 16.385 4.77841 16.568 4.45441C16.751 4.13041 16.8425 3.75991 16.8425 3.34291C16.8425 2.95291 16.7585 2.59891 16.5905 2.28091C16.4225 1.95991 16.187 1.70341 15.884 1.51141L16.037 1.25041C16.388 1.46941 16.661 1.76341 16.856 2.13241C17.048 2.49841 17.144 2.90491 17.144 3.35191ZM14.426 5.48041L14.426 1.41241C14.069 1.44841 13.7495 1.56241 13.4675 1.75441C13.1825 1.94341 12.959 2.18491 12.797 2.47891C12.632 2.76991 12.5495 3.08941 12.5495 3.43741C12.5495 3.79141 12.632 4.11691 12.797 4.41391C12.959 4.70791 13.181 4.94941 13.463 5.13841C13.745 5.32741 14.066 5.44141 14.426 5.48041Z" fill="black"/>
<path d="M14 148C13.6216 148 12.0556 146.87 12.0556 143.639L12.0556 139.466L8.51667 137.882L8.51667 137.921C8.51667 138.348 8.16845 138.694 7.73889 138.694L6.76667 138.694C6.3371 138.694 5.98889 138.348 5.98889 137.921L5.98889 136.839L0.0958535 134.406C0.037824 134.382 2.41737e-07 134.326 2.47195e-07 134.264L2.90896e-07 133.764C2.98854e-07 133.673 0.0788023 133.601 0.170024 133.61L8.32222 134.367L12.0556 134.367L12.5222 125.79L9.47964 123.75C9.43679 123.721 9.41111 123.673 9.41111 123.622L9.41111 123.074C9.41111 122.979 9.49669 122.906 9.59118 122.921L13.0667 123.472L13.7217 122.171C13.8364 121.943 14.1636 121.943 14.2783 122.171L14.9333 123.472L18.4088 122.921C18.5033 122.906 18.5889 122.979 18.5889 123.074L18.5889 123.622C18.5889 123.673 18.5632 123.721 18.5204 123.75L15.4778 125.79L15.9444 134.367L19.6778 134.367L27.83 133.61C27.9212 133.601 28 133.673 28 133.764L28 134.264C28 134.326 27.9622 134.382 27.9041 134.406L22.0111 136.839L22.0111 137.921C22.0111 138.348 21.6629 138.694 21.2333 138.694L20.2611 138.694C19.8315 138.694 19.4833 138.348 19.4833 137.921L19.4833 137.882L15.9444 139.466L15.9444 143.639C15.9444 146.87 14.3784 148 14 148Z" fill="black"/>
<circle cx="14" cy="116" r="1" fill="black"/>
<circle cx="14" cy="69" r="1" fill="black"/>
<circle cx="14" cy="92" r="1" fill="black"/>
<circle cx="14" cy="45" r="1" fill="black"/>
<circle cx="14" cy="108" r="1" fill="black"/>
<circle cx="14" cy="61" r="1" fill="black"/>
<circle cx="14" cy="84" r="1" fill="black"/>
<circle cx="14" cy="100" r="1" fill="black"/>
<circle cx="14" cy="53" r="1" fill="black"/>
<circle cx="14" cy="76" r="1" fill="black"/>
</svg>
