<svg width="28" height="155" viewBox="0 0 28 155" fill="none" xmlns="http://www.w3.org/2000/svg">
<path d="M17.144 42.886C17.144 43.288 17.078 43.6345 16.946 43.9255C16.814 44.2135 16.6565 44.4535 16.4735 44.6455C16.2875 44.8375 16.1105 44.9845 15.9425 45.0865C15.7715 45.1885 15.6485 45.253 15.5735 45.28L15.38 45.0415C15.461 45.0085 15.5795 44.944 15.7355 44.848C15.8915 44.749 16.0535 44.614 16.2215 44.443C16.3865 44.272 16.5275 44.059 16.6445 43.804C16.7615 43.546 16.82 43.2385 16.82 42.8815C16.82 42.5425 16.7585 42.2305 16.6355 41.9455C16.5095 41.6575 16.322 41.4265 16.073 41.2525C15.821 41.0785 15.512 40.9915 15.146 40.9915C14.84 40.9915 14.5835 41.0515 14.3765 41.1715C14.1665 41.2885 13.991 41.446 13.85 41.644C13.709 41.842 13.5875 42.064 13.4855 42.31C13.3835 42.556 13.289 42.805 13.202 43.057C13.142 43.228 13.0685 43.4155 12.9815 43.6195C12.8945 43.8205 12.782 44.0125 12.644 44.1955C12.506 44.3785 12.3335 44.53 12.1265 44.65C11.9165 44.767 11.6585 44.8255 11.3525 44.8255C11.0885 44.8255 10.841 44.7775 10.61 44.6815C10.379 44.5855 10.1765 44.452 10.0025 44.281C9.8255 44.107 9.6875 43.9015 9.5885 43.6645C9.4895 43.4245 9.44 43.162 9.44 42.877C9.44 42.568 9.494 42.2935 9.602 42.0535C9.71 41.8105 9.8465 41.6065 10.0115 41.4415C10.1735 41.2765 10.337 41.155 10.502 41.077L10.6865 41.3155C10.5365 41.3815 10.391 41.4865 10.25 41.6305C10.106 41.7745 9.989 41.9515 9.899 42.1615C9.806 42.3715 9.7595 42.6115 9.7595 42.8815C9.7595 43.2295 9.839 43.525 9.998 43.768C10.154 44.011 10.355 44.1955 10.601 44.3215C10.847 44.4445 11.1005 44.506 11.3615 44.506C11.6135 44.506 11.825 44.455 11.996 44.353C12.167 44.251 12.311 44.119 12.428 43.957C12.542 43.792 12.638 43.615 12.716 43.426C12.794 43.234 12.863 43.0495 12.923 42.8725C13.016 42.6055 13.1195 42.3415 13.2335 42.0805C13.3445 41.8195 13.481 41.581 13.643 41.365C13.802 41.149 14.003 40.9765 14.246 40.8475C14.486 40.7155 14.78 40.6495 15.128 40.6495C15.56 40.6495 15.926 40.7515 16.226 40.9555C16.526 41.1595 16.754 41.4295 16.91 41.7655C17.066 42.1015 17.144 42.475 17.144 42.886ZM17 38.7994L9.251 38.7994L9.251 38.4574L13.0715 38.4574C12.8495 38.3554 12.6575 38.1739 12.4955 37.9129C12.3305 37.6489 12.248 37.3129 12.248 36.9049C12.248 36.5479 12.32 36.2434 12.464 35.9914C12.608 35.7394 12.821 35.5474 13.103 35.4154C13.385 35.2804 13.7315 35.2129 14.1425 35.2129L17 35.2129L17 35.5549L14.192 35.5549C13.655 35.5549 13.2455 35.6779 12.9635 35.9239C12.6815 36.1669 12.5405 36.5134 12.5405 36.9634C12.5405 37.2784 12.605 37.5484 12.734 37.7734C12.86 37.9954 13.025 38.1649 13.229 38.2819C13.43 38.3989 13.646 38.4574 13.877 38.4574L17 38.4574L17 38.7994ZM17.144 31.0673C17.144 31.5353 17.0405 31.9568 16.8335 32.3318C16.6265 32.7068 16.34 33.0038 15.974 33.2228C15.605 33.4418 15.179 33.5513 14.696 33.5513C14.213 33.5513 13.7885 33.4418 13.4225 33.2228C13.0535 33.0038 12.7655 32.7068 12.5585 32.3318C12.3515 31.9568 12.248 31.5353 12.248 31.0673C12.248 30.5963 12.3515 30.1748 12.5585 29.8028C12.7655 29.4278 13.0535 29.1308 13.4225 28.9118C13.7885 28.6898 14.213 28.5788 14.696 28.5788C15.179 28.5788 15.605 28.6883 15.974 28.9073C16.34 29.1263 16.6265 29.4233 16.8335 29.7983C17.0405 30.1733 17.144 30.5963 17.144 31.0673ZM16.82 31.0673C16.82 30.6533 16.7285 30.2858 16.5455 29.9648C16.3625 29.6408 16.112 29.3873 15.794 29.2043C15.473 29.0183 15.107 28.9253 14.696 28.9253C14.285 28.9253 13.9205 29.0183 13.6025 29.2043C13.2815 29.3873 13.0295 29.6408 12.8465 29.9648C12.6635 30.2858 12.572 30.6533 12.572 31.0673C12.572 31.4783 12.6635 31.8458 12.8465 32.1698C13.0295 32.4908 13.2815 32.7443 13.6025 32.9303C13.9205 33.1133 14.285 33.2048 14.696 33.2048C15.107 33.2048 15.473 33.1133 15.794 32.9303C16.112 32.7443 16.3625 32.4908 16.5455 32.1698C16.7285 31.8458 16.82 31.4783 16.82 31.0673ZM19.34 26.8462L12.392 26.8462L12.392 26.5042L13.5125 26.5042C13.1165 26.3182 12.8075 26.0467 12.5855 25.6897C12.3605 25.3297 12.248 24.9277 12.248 24.4837C12.248 24.0397 12.3545 23.6437 12.5675 23.2957C12.7805 22.9477 13.0715 22.6732 13.4405 22.4722C13.8065 22.2712 14.225 22.1707 14.696 22.1707C15.164 22.1707 15.5825 22.2712 15.9515 22.4722C16.3205 22.6732 16.6115 22.9477 16.8245 23.2957C17.0375 23.6407 17.144 24.0352 17.144 24.4792C17.144 24.9232 17.0315 25.3252 16.8065 25.6852C16.5785 26.0422 16.265 26.3152 15.866 26.5042L19.34 26.5042L19.34 26.8462ZM16.8335 24.5197C16.8335 24.1327 16.742 23.7877 16.559 23.4847C16.376 23.1787 16.124 22.9402 15.803 22.7692C15.479 22.5952 15.11 22.5082 14.696 22.5082C14.279 22.5082 13.91 22.5952 13.589 22.7692C13.265 22.9432 13.013 23.1817 12.833 23.4847C12.65 23.7847 12.5585 24.1297 12.5585 24.5197C12.5585 24.9127 12.65 25.2607 12.833 25.5637C13.013 25.8637 13.265 26.1007 13.589 26.2747C13.91 26.4457 14.279 26.5312 14.696 26.5312C15.11 26.5312 15.479 26.4457 15.803 26.2747C16.127 26.1007 16.3805 25.8622 16.5635 25.5592C16.7435 25.2562 16.8335 24.9097 16.8335 24.5197ZM19.34 20.4126L12.392 20.4126L12.392 20.0706L13.5125 20.0706C13.1165 19.8846 12.8075 19.6131 12.5855 19.2561C12.3605 18.8961 12.248 18.4941 12.248 18.0501C12.248 17.6061 12.3545 17.2101 12.5675 16.8621C12.7805 16.5141 13.0715 16.2396 13.4405 16.0386C13.8065 15.8376 14.225 15.7371 14.696 15.7371C15.164 15.7371 15.5825 15.8376 15.9515 16.0386C16.3205 16.2396 16.6115 16.5141 16.8245 16.8621C17.0375 17.2071 17.144 17.6016 17.144 18.0456C17.144 18.4896 17.0315 18.8916 16.8065 19.2516C16.5785 19.6086 16.265 19.8816 15.866 20.0706L19.34 20.0706L19.34 20.4126ZM16.8335 18.0861C16.8335 17.6991 16.742 17.3541 16.559 17.0511C16.376 16.7451 16.124 16.5066 15.803 16.3356C15.479 16.1616 15.11 16.0746 14.696 16.0746C14.279 16.0746 13.91 16.1616 13.589 16.3356C13.265 16.5096 13.013 16.7481 12.833 17.0511C12.65 17.3511 12.5585 17.6961 12.5585 18.0861C12.5585 18.4791 12.65 18.8271 12.833 19.1301C13.013 19.4301 13.265 19.6671 13.589 19.8411C13.91 20.0121 14.279 20.0976 14.696 20.0976C15.11 20.0976 15.479 20.0121 15.803 19.8411C16.127 19.6671 16.3805 19.4286 16.5635 19.1256C16.7435 18.8226 16.8335 18.4761 16.8335 18.0861ZM17 13.9836L12.392 13.9836L12.392 13.6416L17 13.6416L17 13.9836ZM11.4875 13.8126C11.4875 13.8606 11.4755 13.9056 11.4515 13.9476C11.4275 13.9866 11.396 14.0181 11.357 14.0421C11.315 14.0661 11.27 14.0781 11.222 14.0781C11.174 14.0781 11.1305 14.0661 11.0915 14.0421C11.0525 14.0181 11.0225 13.9866 11.0015 13.9476C10.9775 13.9056 10.9655 13.8606 10.9655 13.8126C10.9655 13.7646 10.9775 13.7226 11.0015 13.6866C11.0225 13.6476 11.0525 13.6161 11.0915 13.5921C11.1305 13.5681 11.174 13.5561 11.222 13.5561C11.27 13.5561 11.315 13.5681 11.357 13.5921C11.396 13.6161 11.4275 13.6476 11.4515 13.6866C11.4755 13.7226 11.4875 13.7646 11.4875 13.8126ZM17 11.5621L12.392 11.5621L12.392 11.2201L13.0715 11.2201C12.8495 11.1181 12.6575 10.9366 12.4955 10.6756C12.3305 10.4116 12.248 10.0756 12.248 9.66756C12.248 9.31056 12.32 9.00606 12.464 8.75406C12.608 8.50206 12.821 8.31006 13.103 8.17806C13.385 8.04306 13.7315 7.97556 14.1425 7.97556L17 7.97556L17 8.31756L14.192 8.31756C13.655 8.31756 13.247 8.44056 12.968 8.68656C12.689 8.92956 12.5495 9.27606 12.5495 9.72606C12.5495 10.0411 12.6125 10.3111 12.7385 10.5361C12.8615 10.7581 13.025 10.9276 13.229 11.0446C13.43 11.1616 13.646 11.2201 13.877 11.2201L17 11.2201L17 11.5621ZM19.475 4.03701C19.475 4.60101 19.3595 5.07951 19.1285 5.47251C18.9005 5.86251 18.569 6.15651 18.134 6.35451L18.008 6.05301C18.368 5.90001 18.6545 5.64351 18.8675 5.28351C19.0835 4.92051 19.1915 4.50201 19.1915 4.02801C19.1915 3.63801 19.1135 3.28701 18.9575 2.97501C18.8045 2.66301 18.5795 2.41701 18.2825 2.23701C17.9855 2.05401 17.6255 1.96251 17.2025 1.96251L15.866 1.96251C16.265 2.15151 16.5785 2.42601 16.8065 2.78601C17.0315 3.14301 17.144 3.54651 17.144 3.99651C17.144 4.43151 17.039 4.82301 16.829 5.17101C16.616 5.51901 16.325 5.79351 15.956 5.99451C15.587 6.19551 15.167 6.29601 14.696 6.29601C14.222 6.29601 13.802 6.19551 13.436 5.99451C13.067 5.79351 12.7775 5.51901 12.5675 5.17101C12.3545 4.82301 12.248 4.43001 12.248 3.99201C12.248 3.54501 12.362 3.14151 12.59 2.78151C12.815 2.42151 13.1255 2.14851 13.5215 1.96251L12.392 1.96251L12.392 1.62051L17.126 1.62051C17.66 1.62051 18.0995 1.72251 18.4445 1.92651C18.7925 2.13051 19.0505 2.41401 19.2185 2.77701C19.3895 3.14001 19.475 3.56001 19.475 4.03701ZM16.8335 3.94701C16.8335 3.55401 16.7435 3.20751 16.5635 2.90751C16.3805 2.60451 16.127 2.36751 15.803 2.19651C15.479 2.02251 15.11 1.93551 14.696 1.93551C14.279 1.93551 13.91 2.02101 13.589 2.19201C13.265 2.36301 13.013 2.60001 12.833 2.90301C12.65 3.20601 12.5585 3.55401 12.5585 3.94701C12.5585 4.33401 12.65 4.68051 12.833 4.98651C13.013 5.28951 13.265 5.52801 13.589 5.70201C13.91 5.87301 14.279 5.95851 14.696 5.95851C15.11 5.95851 15.479 5.87301 15.803 5.70201C16.124 5.52801 16.376 5.28951 16.559 4.98651C16.742 4.68051 16.8335 4.33401 16.8335 3.94701Z" fill="black"/>
<path d="M14 155C13.6216 155 12.0556 153.87 12.0556 150.639L12.0556 146.466L8.51667 144.882L8.51667 144.921C8.51667 145.348 8.16845 145.694 7.73889 145.694L6.76667 145.694C6.3371 145.694 5.98889 145.348 5.98889 144.921L5.98889 143.839L0.0958535 141.406C0.037824 141.382 2.41737e-07 141.326 2.47195e-07 141.264L2.90896e-07 140.764C2.98854e-07 140.673 0.0788023 140.601 0.170024 140.61L8.32222 141.367L12.0556 141.367L12.5222 132.79L9.47964 130.75C9.43679 130.721 9.41111 130.673 9.41111 130.622L9.41111 130.074C9.41111 129.979 9.49669 129.906 9.59118 129.921L13.0667 130.472L13.7217 129.171C13.8364 128.943 14.1636 128.943 14.2783 129.171L14.9333 130.472L18.4088 129.921C18.5033 129.906 18.5889 129.979 18.5889 130.074L18.5889 130.622C18.5889 130.673 18.5632 130.721 18.5204 130.75L15.4778 132.79L15.9444 141.367L19.6778 141.367L27.83 140.61C27.9212 140.601 28 140.673 28 140.764L28 141.264C28 141.326 27.9622 141.382 27.9041 141.406L22.0111 143.839L22.0111 144.921C22.0111 145.348 21.6629 145.694 21.2333 145.694L20.2611 145.694C19.8315 145.694 19.4833 145.348 19.4833 144.921L19.4833 144.882L15.9444 146.466L15.9444 150.639C15.9444 153.87 14.3784 155 14 155Z" fill="black"/>
<circle cx="14" cy="123" r="1" fill="black"/>
<circle cx="14" cy="76" r="1" fill="black"/>
<circle cx="14" cy="99" r="1" fill="black"/>
<circle cx="14" cy="52" r="1" fill="black"/>
<circle cx="14" cy="115" r="1" fill="black"/>
<circle cx="14" cy="68" r="1" fill="black"/>
<circle cx="14" cy="91" r="1" fill="black"/>
<circle cx="14" cy="107" r="1" fill="black"/>
<circle cx="14" cy="60" r="1" fill="black"/>
<circle cx="14" cy="83" r="1" fill="black"/>
</svg>
