<svg width="28" height="140" viewBox="0 0 28 140" fill="none" xmlns="http://www.w3.org/2000/svg">
<path d="M17 29.704L9.575 29.704L9.575 28.039C9.575 27.562 9.6575 27.151 9.8225 26.806C9.9875 26.461 10.2215 26.1955 10.5245 26.0095C10.8275 25.8205 11.189 25.726 11.609 25.726C12.017 25.726 12.3755 25.8145 12.6845 25.9915C12.9905 26.1685 13.2335 26.4175 13.4135 26.7385C13.5935 27.0565 13.694 27.4345 13.715 27.8725L17 25.384L17 25.8295L13.7285 28.2955L13.7285 29.3575L17 29.3575L17 29.704ZM13.409 29.3575L13.409 28.075C13.409 27.667 13.3355 27.313 13.1885 27.013C13.0385 26.71 12.83 26.476 12.563 26.311C12.293 26.146 11.9765 26.0635 11.6135 26.0635C11.0735 26.0635 10.6475 26.2435 10.3355 26.6035C10.0235 26.9635 9.8675 27.454 9.8675 28.075L9.8675 29.3575L13.409 29.3575ZM17.144 21.974C17.144 22.454 17.0375 22.88 16.8245 23.252C16.6085 23.624 16.319 23.9165 15.956 24.1295C15.59 24.3395 15.179 24.4445 14.723 24.4445C14.375 24.4445 14.051 24.383 13.751 24.26C13.448 24.134 13.1855 23.9615 12.9635 23.7425C12.7385 23.5235 12.563 23.2715 12.437 22.9865C12.311 22.6985 12.248 22.3925 12.248 22.0685C12.248 21.6455 12.3485 21.26 12.5495 20.912C12.7505 20.564 13.025 20.282 13.373 20.066C13.721 19.847 14.1185 19.7225 14.5655 19.6925C14.5925 19.6895 14.6165 19.6895 14.6375 19.6925C14.6585 19.6925 14.6825 19.6925 14.7095 19.6925L14.7095 24.116C15.1205 24.116 15.488 24.0245 15.812 23.8415C16.133 23.6555 16.385 23.4005 16.568 23.0765C16.751 22.7525 16.8425 22.382 16.8425 21.965C16.8425 21.575 16.7585 21.221 16.5905 20.903C16.4225 20.582 16.187 20.3255 15.884 20.1335L16.037 19.8725C16.388 20.0915 16.661 20.3855 16.856 20.7545C17.048 21.1205 17.144 21.527 17.144 21.974ZM14.426 24.1025L14.426 20.0345C14.069 20.0705 13.7495 20.1845 13.4675 20.3765C13.1825 20.5655 12.959 20.807 12.797 21.101C12.632 21.392 12.5495 21.7115 12.5495 22.0595C12.5495 22.4135 12.632 22.739 12.797 23.036C12.959 23.33 13.181 23.5715 13.463 23.7605C13.745 23.9495 14.066 24.0635 14.426 24.1025ZM17 18.0382L12.392 18.0382L12.392 17.6962L17 17.6962L17 18.0382ZM11.4875 17.8672C11.4875 17.9152 11.4755 17.9602 11.4515 18.0022C11.4275 18.0412 11.396 18.0727 11.357 18.0967C11.315 18.1207 11.27 18.1327 11.222 18.1327C11.174 18.1327 11.1305 18.1207 11.0915 18.0967C11.0525 18.0727 11.0225 18.0412 11.0015 18.0022C10.9775 17.9602 10.9655 17.9152 10.9655 17.8672C10.9655 17.8192 10.9775 17.7772 11.0015 17.7412C11.0225 17.7022 11.0525 17.6707 11.0915 17.6467C11.1305 17.6227 11.174 17.6107 11.222 17.6107C11.27 17.6107 11.315 17.6227 11.357 17.6467C11.396 17.6707 11.4275 17.7022 11.4515 17.7412C11.4755 17.7772 11.4875 17.8192 11.4875 17.8672ZM17.144 14.4737C17.144 14.8517 17.039 15.1832 16.829 15.4682C16.619 15.7502 16.3205 15.9617 15.9335 16.1027L15.794 15.8552C16.127 15.7322 16.388 15.5507 16.577 15.3107C16.763 15.0677 16.856 14.7902 16.856 14.4782C16.856 14.2562 16.808 14.0507 16.712 13.8617C16.616 13.6727 16.481 13.5212 16.307 13.4072C16.13 13.2932 15.9215 13.2362 15.6815 13.2362C15.4685 13.2362 15.302 13.2857 15.182 13.3847C15.062 13.4807 14.96 13.6217 14.876 13.8077C14.792 13.9907 14.699 14.2142 14.597 14.4782C14.519 14.6792 14.432 14.8757 14.336 15.0677C14.237 15.2567 14.1125 15.4127 13.9625 15.5357C13.8125 15.6587 13.6205 15.7202 13.3865 15.7202C13.1675 15.7202 12.9725 15.6632 12.8015 15.5492C12.6305 15.4352 12.4955 15.2807 12.3965 15.0857C12.2975 14.8877 12.248 14.6657 12.248 14.4197C12.248 14.1527 12.3125 13.9112 12.4415 13.6952C12.5705 13.4762 12.752 13.2992 12.986 13.1642L13.148 13.3892C12.737 13.6142 12.5315 13.9577 12.5315 14.4197C12.5315 14.7077 12.611 14.9432 12.77 15.1262C12.926 15.3092 13.13 15.4007 13.382 15.4007C13.559 15.4007 13.703 15.3527 13.814 15.2567C13.925 15.1607 14.0195 15.0302 14.0975 14.8652C14.1725 14.7002 14.249 14.5157 14.327 14.3117C14.438 14.0267 14.5445 13.7807 14.6465 13.5737C14.7485 13.3637 14.8775 13.2017 15.0335 13.0877C15.1865 12.9707 15.398 12.9122 15.668 12.9122C15.965 12.9122 16.2245 12.9812 16.4465 13.1192C16.6685 13.2572 16.841 13.4447 16.964 13.6817C17.084 13.9157 17.144 14.1797 17.144 14.4737ZM17.144 9.08922C17.144 9.56922 17.0375 9.99522 16.8245 10.3672C16.6085 10.7392 16.319 11.0317 15.956 11.2447C15.59 11.4547 15.179 11.5597 14.723 11.5597C14.375 11.5597 14.051 11.4982 13.751 11.3752C13.448 11.2492 13.1855 11.0767 12.9635 10.8577C12.7385 10.6387 12.563 10.3867 12.437 10.1017C12.311 9.81372 12.248 9.50772 12.248 9.18372C12.248 8.76072 12.3485 8.37522 12.5495 8.02722C12.7505 7.67922 13.025 7.39722 13.373 7.18122C13.721 6.96222 14.1185 6.83772 14.5655 6.80772C14.5925 6.80472 14.6165 6.80472 14.6375 6.80772C14.6585 6.80772 14.6825 6.80772 14.7095 6.80772L14.7095 11.2312C15.1205 11.2312 15.488 11.1397 15.812 10.9567C16.133 10.7707 16.385 10.5157 16.568 10.1917C16.751 9.86772 16.8425 9.49722 16.8425 9.08022C16.8425 8.69022 16.7585 8.33622 16.5905 8.01822C16.4225 7.69722 16.187 7.44072 15.884 7.24872L16.037 6.98772C16.388 7.20672 16.661 7.50072 16.856 7.86972C17.048 8.23572 17.144 8.64222 17.144 9.08922ZM14.426 11.2177L14.426 7.14972C14.069 7.18572 13.7495 7.29972 13.4675 7.49172C13.1825 7.68072 12.959 7.92222 12.797 8.21622C12.632 8.50722 12.5495 8.82672 12.5495 9.17472C12.5495 9.52872 12.632 9.85422 12.797 10.1512C12.959 10.4452 13.181 10.6867 13.463 10.8757C13.745 11.0647 14.066 11.1787 14.426 11.2177ZM17 5.14898L12.392 5.14898L12.392 4.80698L13.0715 4.80698C12.8495 4.70498 12.6575 4.52348 12.4955 4.26248C12.3305 3.99848 12.248 3.66248 12.248 3.25448C12.248 2.89748 12.32 2.59298 12.464 2.34098C12.608 2.08898 12.821 1.89698 13.103 1.76498C13.385 1.62998 13.7315 1.56248 14.1425 1.56248L17 1.56248L17 1.90448L14.192 1.90448C13.655 1.90448 13.247 2.02748 12.968 2.27348C12.689 2.51648 12.5495 2.86298 12.5495 3.31298C12.5495 3.62798 12.6125 3.89798 12.7385 4.12298C12.8615 4.34498 13.025 4.51448 13.229 4.63148C13.43 4.74848 13.646 4.80698 13.877 4.80698L17 4.80698L17 5.14898Z" fill="black"/>
<path d="M14 140C13.6216 140 12.0556 138.87 12.0556 135.639L12.0556 131.466L8.51667 129.882L8.51667 129.921C8.51667 130.348 8.16845 130.694 7.73889 130.694L6.76667 130.694C6.3371 130.694 5.98889 130.348 5.98889 129.921L5.98889 128.839L0.0958535 126.406C0.037824 126.382 2.41737e-07 126.326 2.47195e-07 126.264L2.90896e-07 125.764C2.98854e-07 125.673 0.0788023 125.601 0.170024 125.61L8.32222 126.367L12.0556 126.367L12.5222 117.79L9.47964 115.75C9.43679 115.721 9.41111 115.673 9.41111 115.622L9.41111 115.074C9.41111 114.979 9.49669 114.906 9.59118 114.921L13.0667 115.472L13.7217 114.171C13.8364 113.943 14.1636 113.943 14.2783 114.171L14.9333 115.472L18.4088 114.921C18.5033 114.906 18.5889 114.979 18.5889 115.074L18.5889 115.622C18.5889 115.673 18.5632 115.721 18.5204 115.75L15.4778 117.79L15.9444 126.367L19.6778 126.367L27.83 125.61C27.9212 125.601 28 125.673 28 125.764L28 126.264C28 126.326 27.9622 126.382 27.9041 126.406L22.0111 128.839L22.0111 129.921C22.0111 130.348 21.6629 130.694 21.2333 130.694L20.2611 130.694C19.8315 130.694 19.4833 130.348 19.4833 129.921L19.4833 129.882L15.9444 131.466L15.9444 135.639C15.9444 138.87 14.3784 140 14 140Z" fill="black"/>
<circle cx="14" cy="108" r="1" fill="black"/>
<circle cx="14" cy="61" r="1" fill="black"/>
<circle cx="14" cy="84" r="1" fill="black"/>
<circle cx="14" cy="37" r="1" fill="black"/>
<circle cx="14" cy="100" r="1" fill="black"/>
<circle cx="14" cy="53" r="1" fill="black"/>
<circle cx="14" cy="76" r="1" fill="black"/>
<circle cx="14" cy="92" r="1" fill="black"/>
<circle cx="14" cy="45" r="1" fill="black"/>
<circle cx="14" cy="68" r="1" fill="black"/>
</svg>
