<svg width="28" height="175" viewBox="0 0 28 175" fill="none" xmlns="http://www.w3.org/2000/svg">
<path d="M17 64.704L9.575 64.704L9.575 61.131L9.8855 61.131L9.8855 64.3575L13.1255 64.3575L13.1255 61.239L13.4315 61.239L13.4315 64.3575L16.6895 64.3575L16.6895 61.131L17 61.131L17 64.704ZM17 59.2916L12.392 59.2916L12.392 58.9496L13.0715 58.9496C12.8495 58.8476 12.6575 58.6661 12.4955 58.4051C12.3305 58.1411 12.248 57.8051 12.248 57.3971C12.248 57.0401 12.32 56.7356 12.464 56.4836C12.608 56.2316 12.821 56.0396 13.103 55.9076C13.385 55.7726 13.7315 55.7051 14.1425 55.7051L17 55.7051L17 56.0471L14.192 56.0471C13.655 56.0471 13.247 56.1701 12.968 56.4161C12.689 56.6591 12.5495 57.0056 12.5495 57.4556C12.5495 57.7706 12.6125 58.0406 12.7385 58.2656C12.8615 58.4876 13.025 58.6571 13.229 58.7741C13.43 58.8911 13.646 58.9496 13.877 58.9496L17 58.9496L17 59.2916ZM17.144 52.8137C17.144 53.1107 17.0405 53.3402 16.8335 53.5022C16.6265 53.6612 16.3355 53.7407 15.9605 53.7407L12.6485 53.7407L12.6485 54.1457L12.392 54.1457L12.392 53.7407L10.673 53.7407L10.673 53.3987L12.392 53.3987L12.392 52.1927L12.6485 52.1927L12.6485 53.3987L15.9515 53.3987C16.2425 53.3987 16.4645 53.3447 16.6175 53.2367C16.7705 53.1257 16.847 52.9667 16.847 52.7597C16.847 52.5647 16.796 52.3997 16.694 52.2647L16.964 52.1792C17.018 52.2572 17.0615 52.3532 17.0945 52.4672C17.1275 52.5782 17.144 52.6937 17.144 52.8137ZM17.144 48.5013C17.144 48.9813 17.0375 49.4073 16.8245 49.7793C16.6085 50.1513 16.319 50.4438 15.956 50.6568C15.59 50.8668 15.179 50.9718 14.723 50.9718C14.375 50.9718 14.051 50.9103 13.751 50.7873C13.448 50.6613 13.1855 50.4888 12.9635 50.2698C12.7385 50.0508 12.563 49.7988 12.437 49.5138C12.311 49.2258 12.248 48.9198 12.248 48.5958C12.248 48.1728 12.3485 47.7873 12.5495 47.4393C12.7505 47.0913 13.025 46.8093 13.373 46.5933C13.721 46.3743 14.1185 46.2498 14.5655 46.2198C14.5925 46.2168 14.6165 46.2168 14.6375 46.2198C14.6585 46.2198 14.6825 46.2198 14.7095 46.2198L14.7095 50.6433C15.1205 50.6433 15.488 50.5518 15.812 50.3688C16.133 50.1828 16.385 49.9278 16.568 49.6038C16.751 49.2798 16.8425 48.9093 16.8425 48.4923C16.8425 48.1023 16.7585 47.7483 16.5905 47.4303C16.4225 47.1093 16.187 46.8528 15.884 46.6608L16.037 46.3998C16.388 46.6188 16.661 46.9128 16.856 47.2818C17.048 47.6478 17.144 48.0543 17.144 48.5013ZM14.426 50.6298L14.426 46.5618C14.069 46.5978 13.7495 46.7118 13.4675 46.9038C13.1825 47.0928 12.959 47.3343 12.797 47.6283C12.632 47.9193 12.5495 48.2388 12.5495 48.5868C12.5495 48.9408 12.632 49.2663 12.797 49.5633C12.959 49.8573 13.181 50.0988 13.463 50.2878C13.745 50.4768 14.066 50.5908 14.426 50.6298ZM17 44.5611L12.392 44.5611L12.392 44.2191L13.0805 44.2191C12.8045 44.0871 12.5975 43.9086 12.4595 43.6836C12.3185 43.4586 12.248 43.1886 12.248 42.8736C12.248 42.7476 12.2585 42.6231 12.2795 42.5001C12.3005 42.3741 12.3305 42.2631 12.3695 42.1671L12.6575 42.3066C12.6245 42.3906 12.599 42.4866 12.581 42.5946C12.56 42.6996 12.5495 42.8016 12.5495 42.9006C12.5495 43.1256 12.608 43.3386 12.725 43.5396C12.839 43.7406 12.9875 43.9041 13.1705 44.0301C13.3535 44.1561 13.5485 44.2191 13.7555 44.2191L17 44.2191L17 44.5611ZM17.144 39.8059C17.144 40.1029 17.0405 40.3324 16.8335 40.4944C16.6265 40.6534 16.3355 40.7329 15.9605 40.7329L12.6485 40.7329L12.6485 41.1379L12.392 41.1379L12.392 40.7329L10.673 40.7329L10.673 40.3909L12.392 40.3909L12.392 39.1849L12.6485 39.1849L12.6485 40.3909L15.9515 40.3909C16.2425 40.3909 16.4645 40.3369 16.6175 40.2289C16.7705 40.1179 16.847 39.9589 16.847 39.7519C16.847 39.5569 16.796 39.3919 16.694 39.2569L16.964 39.1714C17.018 39.2494 17.0615 39.3454 17.0945 39.4594C17.1275 39.5704 17.144 39.6859 17.144 39.8059ZM17.144 35.6641C17.144 36.0991 17.039 36.4906 16.829 36.8386C16.616 37.1866 16.325 37.4611 15.956 37.6621C15.587 37.8631 15.167 37.9636 14.696 37.9636C14.222 37.9636 13.802 37.8631 13.436 37.6621C13.067 37.4611 12.7775 37.1881 12.5675 36.8431C12.3545 36.4951 12.248 36.1021 12.248 35.6641C12.248 35.2081 12.362 34.7986 12.59 34.4356C12.815 34.0696 13.1255 33.8011 13.5215 33.6301L12.392 33.6301L12.392 33.2881L17 33.2881L17 33.6301L15.866 33.6301C16.265 33.8191 16.5785 34.0936 16.8065 34.4536C17.0315 34.8106 17.144 35.2141 17.144 35.6641ZM16.8335 35.6146C16.8335 35.2216 16.7435 34.8751 16.5635 34.5751C16.3805 34.2721 16.127 34.0351 15.803 33.8641C15.479 33.6901 15.11 33.6031 14.696 33.6031C14.279 33.6031 13.91 33.6886 13.589 33.8596C13.265 34.0306 13.013 34.2676 12.833 34.5706C12.65 34.8736 12.5585 35.2216 12.5585 35.6146C12.5585 36.0016 12.65 36.3466 12.833 36.6496C13.013 36.9526 13.265 37.1911 13.589 37.3651C13.91 37.5391 14.279 37.6261 14.696 37.6261C15.11 37.6261 15.479 37.5391 15.803 37.3651C16.124 37.1911 16.376 36.9526 16.559 36.6496C16.742 36.3466 16.8335 36.0016 16.8335 35.6146ZM17 31.215L12.392 31.215L12.392 30.873L17 30.873L17 31.215ZM11.4875 31.044C11.4875 31.092 11.4755 31.137 11.4515 31.179C11.4275 31.218 11.396 31.2495 11.357 31.2735C11.315 31.2975 11.27 31.3095 11.222 31.3095C11.174 31.3095 11.1305 31.2975 11.0915 31.2735C11.0525 31.2495 11.0225 31.218 11.0015 31.179C10.9775 31.137 10.9655 31.092 10.9655 31.044C10.9655 30.996 10.9775 30.954 11.0015 30.918C11.0225 30.879 11.0525 30.8475 11.0915 30.8235C11.1305 30.7995 11.174 30.7875 11.222 30.7875C11.27 30.7875 11.315 30.7995 11.357 30.8235C11.396 30.8475 11.4275 30.879 11.4515 30.918C11.4755 30.954 11.4875 30.996 11.4875 31.044ZM17 28.7935L12.392 28.7935L12.392 28.4515L13.0715 28.4515C12.8495 28.3495 12.6575 28.168 12.4955 27.907C12.3305 27.643 12.248 27.307 12.248 26.899C12.248 26.542 12.32 26.2375 12.464 25.9855C12.608 25.7335 12.821 25.5415 13.103 25.4095C13.385 25.2745 13.7315 25.207 14.1425 25.207L17 25.207L17 25.549L14.192 25.549C13.655 25.549 13.247 25.672 12.968 25.918C12.689 26.161 12.5495 26.5075 12.5495 26.9575C12.5495 27.2725 12.6125 27.5425 12.7385 27.7675C12.8615 27.9895 13.025 28.159 13.229 28.276C13.43 28.393 13.646 28.4515 13.877 28.4515L17 28.4515L17 28.7935ZM17 23.2125L12.392 23.2125L12.392 22.8705L13.0715 22.8705C12.8075 22.7115 12.605 22.4985 12.464 22.2315C12.32 21.9615 12.248 21.657 12.248 21.318C12.248 20.928 12.338 20.595 12.518 20.319C12.698 20.04 12.9455 19.8495 13.2605 19.7475C12.9635 19.5915 12.7205 19.374 12.5315 19.095C12.3425 18.813 12.248 18.471 12.248 18.069C12.248 17.745 12.314 17.457 12.446 17.205C12.578 16.953 12.773 16.755 13.031 16.611C13.286 16.464 13.6025 16.3905 13.9805 16.3905L17 16.3905L17 16.7325L14.084 16.7325C13.613 16.7325 13.2395 16.857 12.9635 17.106C12.6845 17.352 12.545 17.679 12.545 18.087C12.545 18.375 12.6095 18.636 12.7385 18.87C12.8645 19.101 13.025 19.2855 13.22 19.4235C13.415 19.5615 13.6145 19.6305 13.8185 19.6305L17 19.6305L17 19.9725L14.003 19.9725C13.553 19.9725 13.1975 20.0955 12.9365 20.3415C12.6755 20.5875 12.545 20.91 12.545 21.309C12.545 21.591 12.6065 21.8505 12.7295 22.0875C12.8495 22.3245 13.001 22.515 13.184 22.659C13.367 22.8 13.5515 22.8705 13.7375 22.8705L17 22.8705L17 23.2125ZM17.144 12.2552C17.144 12.7352 17.0375 13.1612 16.8245 13.5332C16.6085 13.9052 16.319 14.1977 15.956 14.4107C15.59 14.6207 15.179 14.7257 14.723 14.7257C14.375 14.7257 14.051 14.6642 13.751 14.5412C13.448 14.4152 13.1855 14.2427 12.9635 14.0237C12.7385 13.8047 12.563 13.5527 12.437 13.2677C12.311 12.9797 12.248 12.6737 12.248 12.3497C12.248 11.9267 12.3485 11.5412 12.5495 11.1932C12.7505 10.8452 13.025 10.5632 13.373 10.3472C13.721 10.1282 14.1185 10.0037 14.5655 9.97373C14.5925 9.97073 14.6165 9.97073 14.6375 9.97373C14.6585 9.97373 14.6825 9.97373 14.7095 9.97373L14.7095 14.3972C15.1205 14.3972 15.488 14.3057 15.812 14.1227C16.133 13.9367 16.385 13.6817 16.568 13.3577C16.751 13.0337 16.8425 12.6632 16.8425 12.2462C16.8425 11.8562 16.7585 11.5022 16.5905 11.1842C16.4225 10.8632 16.187 10.6067 15.884 10.4147L16.037 10.1537C16.388 10.3727 16.661 10.6667 16.856 11.0357C17.048 11.4017 17.144 11.8082 17.144 12.2552ZM14.426 14.3837L14.426 10.3157C14.069 10.3517 13.7495 10.4657 13.4675 10.6577C13.1825 10.8467 12.959 11.0882 12.797 11.3822C12.632 11.6732 12.5495 11.9927 12.5495 12.3407C12.5495 12.6947 12.632 13.0202 12.797 13.3172C12.959 13.6112 13.181 13.8527 13.463 14.0417C13.745 14.2307 14.066 14.3447 14.426 14.3837ZM17 8.31499L12.392 8.31499L12.392 7.97299L13.0715 7.97299C12.8495 7.87099 12.6575 7.68949 12.4955 7.42849C12.3305 7.16449 12.248 6.82849 12.248 6.42049C12.248 6.06349 12.32 5.75899 12.464 5.50699C12.608 5.25499 12.821 5.06299 13.103 4.93099C13.385 4.79599 13.7315 4.72849 14.1425 4.72849L17 4.72849L17 5.07049L14.192 5.07049C13.655 5.07049 13.247 5.19349 12.968 5.43949C12.689 5.68249 12.5495 6.02899 12.5495 6.47899C12.5495 6.79399 12.6125 7.06399 12.7385 7.28899C12.8615 7.51099 13.025 7.68049 13.229 7.79749C13.43 7.91449 13.646 7.97299 13.877 7.97299L17 7.97299L17 8.31499ZM17.144 1.83717C17.144 2.13417 17.0405 2.36367 16.8335 2.52567C16.6265 2.68467 16.3355 2.76417 15.9605 2.76417L12.6485 2.76417L12.6485 3.16917L12.392 3.16917L12.392 2.76417L10.673 2.76417L10.673 2.42217L12.392 2.42217L12.392 1.21617L12.6485 1.21617L12.6485 2.42217L15.9515 2.42217C16.2425 2.42217 16.4645 2.36817 16.6175 2.26017C16.7705 2.14917 16.847 1.99017 16.847 1.78317C16.847 1.58817 16.796 1.42317 16.694 1.28817L16.964 1.20267C17.018 1.28067 17.0615 1.37667 17.0945 1.49067C17.1275 1.60167 17.144 1.71717 17.144 1.83717Z" fill="black"/>
<path d="M14 175C13.6216 175 12.0556 173.87 12.0556 170.639L12.0556 166.466L8.51667 164.882L8.51667 164.921C8.51667 165.348 8.16845 165.694 7.73889 165.694L6.76667 165.694C6.3371 165.694 5.98889 165.348 5.98889 164.921L5.98889 163.839L0.0958535 161.406C0.037824 161.382 2.41737e-07 161.326 2.47195e-07 161.264L2.90896e-07 160.764C2.98854e-07 160.673 0.0788023 160.601 0.170024 160.61L8.32222 161.367L12.0556 161.367L12.5222 152.79L9.47964 150.75C9.43679 150.721 9.41111 150.673 9.41111 150.622L9.41111 150.074C9.41111 149.979 9.49669 149.906 9.59118 149.921L13.0667 150.472L13.7217 149.171C13.8364 148.943 14.1636 148.943 14.2783 149.171L14.9333 150.472L18.4088 149.921C18.5033 149.906 18.5889 149.979 18.5889 150.074L18.5889 150.622C18.5889 150.673 18.5632 150.721 18.5204 150.75L15.4778 152.79L15.9444 161.367L19.6778 161.367L27.83 160.61C27.9212 160.601 28 160.673 28 160.764L28 161.264C28 161.326 27.9622 161.382 27.9041 161.406L22.0111 163.839L22.0111 164.921C22.0111 165.348 21.6629 165.694 21.2333 165.694L20.2611 165.694C19.8315 165.694 19.4833 165.348 19.4833 164.921L19.4833 164.882L15.9444 166.466L15.9444 170.639C15.9444 173.87 14.3784 175 14 175Z" fill="black"/>
<circle cx="14" cy="143" r="1" fill="black"/>
<circle cx="14" cy="96" r="1" fill="black"/>
<circle cx="14" cy="119" r="1" fill="black"/>
<circle cx="14" cy="72" r="1" fill="black"/>
<circle cx="14" cy="135" r="1" fill="black"/>
<circle cx="14" cy="88" r="1" fill="black"/>
<circle cx="14" cy="111" r="1" fill="black"/>
<circle cx="14" cy="127" r="1" fill="black"/>
<circle cx="14" cy="80" r="1" fill="black"/>
<circle cx="14" cy="103" r="1" fill="black"/>
</svg>
