<svg width="28" height="162" viewBox="0 0 28 162" fill="none" xmlns="http://www.w3.org/2000/svg">
<path d="M17.144 48.509C17.144 49.064 17.048 49.577 16.856 50.048C16.661 50.516 16.3895 50.924 16.0415 51.272C15.6905 51.62 15.2825 51.89 14.8175 52.082C14.3495 52.271 13.841 52.3655 13.292 52.3655C12.743 52.3655 12.236 52.271 11.771 52.082C11.303 51.89 10.895 51.62 10.547 51.272C10.196 50.924 9.9245 50.516 9.7325 50.048C9.5375 49.577 9.44 49.064 9.44 48.509C9.44 48.038 9.5105 47.6 9.6515 47.195C9.7895 46.79 9.983 46.427 10.232 46.106L10.5155 46.295C10.2785 46.586 10.0985 46.919 9.9755 47.294C9.8495 47.666 9.7865 48.062 9.7865 48.482C9.7865 48.998 9.8765 49.4705 10.0565 49.8995C10.2365 50.3255 10.4855 50.6945 10.8035 51.0065C11.1215 51.3155 11.4935 51.5555 11.9195 51.7265C12.3425 51.8975 12.8 51.983 13.292 51.983C13.784 51.983 14.243 51.8975 14.669 51.7265C15.092 51.5555 15.4625 51.3155 15.7805 51.0065C16.0985 50.6945 16.3475 50.3255 16.5275 49.8995C16.7075 49.4705 16.7975 48.998 16.7975 48.482C16.7975 48.062 16.736 47.666 16.613 47.294C16.487 46.919 16.3055 46.586 16.0685 46.295L16.352 46.106C16.598 46.424 16.7915 46.787 16.9325 47.195C17.0735 47.6 17.144 48.038 17.144 48.509ZM17.144 42.5889C17.144 43.0239 17.039 43.4154 16.829 43.7634C16.616 44.1114 16.325 44.3859 15.956 44.5869C15.587 44.7879 15.167 44.8884 14.696 44.8884C14.222 44.8884 13.802 44.7879 13.436 44.5869C13.067 44.3859 12.7775 44.1129 12.5675 43.7679C12.3545 43.4199 12.248 43.0269 12.248 42.5889C12.248 42.1329 12.362 41.7234 12.59 41.3604C12.815 40.9944 13.1255 40.7259 13.5215 40.5549L12.392 40.5549L12.392 40.2129L17 40.2129L17 40.5549L15.866 40.5549C16.265 40.7439 16.5785 41.0184 16.8065 41.3784C17.0315 41.7354 17.144 42.1389 17.144 42.5889ZM16.8335 42.5394C16.8335 42.1464 16.7435 41.7999 16.5635 41.4999C16.3805 41.1969 16.127 40.9599 15.803 40.7889C15.479 40.6149 15.11 40.5279 14.696 40.5279C14.279 40.5279 13.91 40.6134 13.589 40.7844C13.265 40.9554 13.013 41.1924 12.833 41.4954C12.65 41.7984 12.5585 42.1464 12.5585 42.5394C12.5585 42.9264 12.65 43.2714 12.833 43.5744C13.013 43.8774 13.265 44.1159 13.589 44.2899C13.91 44.4639 14.279 44.5509 14.696 44.5509C15.11 44.5509 15.479 44.4639 15.803 44.2899C16.124 44.1159 16.376 43.8774 16.559 43.5744C16.742 43.2714 16.8335 42.9264 16.8335 42.5394ZM17.144 37.2473C17.144 37.5443 17.0405 37.7738 16.8335 37.9358C16.6265 38.0948 16.3355 38.1743 15.9605 38.1743L12.6485 38.1743L12.6485 38.5793L12.392 38.5793L12.392 38.1743L10.673 38.1743L10.673 37.8323L12.392 37.8323L12.392 36.6263L12.6485 36.6263L12.6485 37.8323L15.9515 37.8323C16.2425 37.8323 16.4645 37.7783 16.6175 37.6703C16.7705 37.5593 16.847 37.4003 16.847 37.1933C16.847 36.9983 16.796 36.8333 16.694 36.6983L16.964 36.6128C17.018 36.6908 17.0615 36.7868 17.0945 36.9008C17.1275 37.0118 17.144 37.1273 17.144 37.2473ZM17.144 32.9349C17.144 33.4149 17.0375 33.8409 16.8245 34.2129C16.6085 34.5849 16.319 34.8774 15.956 35.0904C15.59 35.3004 15.179 35.4054 14.723 35.4054C14.375 35.4054 14.051 35.3439 13.751 35.2209C13.448 35.0949 13.1855 34.9224 12.9635 34.7034C12.7385 34.4844 12.563 34.2324 12.437 33.9474C12.311 33.6594 12.248 33.3534 12.248 33.0294C12.248 32.6064 12.3485 32.2209 12.5495 31.8729C12.7505 31.5249 13.025 31.2429 13.373 31.0269C13.721 30.8079 14.1185 30.6834 14.5655 30.6534C14.5925 30.6504 14.6165 30.6504 14.6375 30.6534C14.6585 30.6534 14.6825 30.6534 14.7095 30.6534L14.7095 35.0769C15.1205 35.0769 15.488 34.9854 15.812 34.8024C16.133 34.6164 16.385 34.3614 16.568 34.0374C16.751 33.7134 16.8425 33.3429 16.8425 32.9259C16.8425 32.5359 16.7585 32.1819 16.5905 31.8639C16.4225 31.5429 16.187 31.2864 15.884 31.0944L16.037 30.8334C16.388 31.0524 16.661 31.3464 16.856 31.7154C17.048 32.0814 17.144 32.4879 17.144 32.9349ZM14.426 35.0634L14.426 30.9954C14.069 31.0314 13.7495 31.1454 13.4675 31.3374C13.1825 31.5264 12.959 31.7679 12.797 32.0619C12.632 32.3529 12.5495 32.6724 12.5495 33.0204C12.5495 33.3744 12.632 33.6999 12.797 33.9969C12.959 34.2909 13.181 34.5324 13.463 34.7214C13.745 34.9104 14.066 35.0244 14.426 35.0634ZM19.475 27.0331C19.475 27.5971 19.3595 28.0756 19.1285 28.4686C18.9005 28.8586 18.569 29.1526 18.134 29.3506L18.008 29.0491C18.368 28.8961 18.6545 28.6396 18.8675 28.2796C19.0835 27.9166 19.1915 27.4981 19.1915 27.0241C19.1915 26.6341 19.1135 26.2831 18.9575 25.9711C18.8045 25.6591 18.5795 25.4131 18.2825 25.2331C17.9855 25.0501 17.6255 24.9586 17.2025 24.9586L15.866 24.9586C16.265 25.1476 16.5785 25.4221 16.8065 25.7821C17.0315 26.1391 17.144 26.5426 17.144 26.9926C17.144 27.4276 17.039 27.8191 16.829 28.1671C16.616 28.5151 16.325 28.7896 15.956 28.9906C15.587 29.1916 15.167 29.2921 14.696 29.2921C14.222 29.2921 13.802 29.1916 13.436 28.9906C13.067 28.7896 12.7775 28.5151 12.5675 28.1671C12.3545 27.8191 12.248 27.4261 12.248 26.9881C12.248 26.5411 12.362 26.1376 12.59 25.7776C12.815 25.4176 13.1255 25.1446 13.5215 24.9586L12.392 24.9586L12.392 24.6166L17.126 24.6166C17.66 24.6166 18.0995 24.7186 18.4445 24.9226C18.7925 25.1266 19.0505 25.4101 19.2185 25.7731C19.3895 26.1361 19.475 26.5561 19.475 27.0331ZM16.8335 26.9431C16.8335 26.5501 16.7435 26.2036 16.5635 25.9036C16.3805 25.6006 16.127 25.3636 15.803 25.1926C15.479 25.0186 15.11 24.9316 14.696 24.9316C14.279 24.9316 13.91 25.0171 13.589 25.1881C13.265 25.3591 13.013 25.5961 12.833 25.8991C12.65 26.2021 12.5585 26.5501 12.5585 26.9431C12.5585 27.3301 12.65 27.6766 12.833 27.9826C13.013 28.2856 13.265 28.5241 13.589 28.6981C13.91 28.8691 14.279 28.9546 14.696 28.9546C15.11 28.9546 15.479 28.8691 15.803 28.6981C16.124 28.5241 16.376 28.2856 16.559 27.9826C16.742 27.6766 16.8335 27.3301 16.8335 26.9431ZM17.144 20.4277C17.144 20.8957 17.0405 21.3172 16.8335 21.6922C16.6265 22.0672 16.34 22.3642 15.974 22.5832C15.605 22.8022 15.179 22.9117 14.696 22.9117C14.213 22.9117 13.7885 22.8022 13.4225 22.5832C13.0535 22.3642 12.7655 22.0672 12.5585 21.6922C12.3515 21.3172 12.248 20.8957 12.248 20.4277C12.248 19.9567 12.3515 19.5352 12.5585 19.1632C12.7655 18.7882 13.0535 18.4912 13.4225 18.2722C13.7885 18.0502 14.213 17.9392 14.696 17.9392C15.179 17.9392 15.605 18.0487 15.974 18.2677C16.34 18.4867 16.6265 18.7837 16.8335 19.1587C17.0405 19.5337 17.144 19.9567 17.144 20.4277ZM16.82 20.4277C16.82 20.0137 16.7285 19.6462 16.5455 19.3252C16.3625 19.0012 16.112 18.7477 15.794 18.5647C15.473 18.3787 15.107 18.2857 14.696 18.2857C14.285 18.2857 13.9205 18.3787 13.6025 18.5647C13.2815 18.7477 13.0295 19.0012 12.8465 19.3252C12.6635 19.6462 12.572 20.0137 12.572 20.4277C12.572 20.8387 12.6635 21.2062 12.8465 21.5302C13.0295 21.8512 13.2815 22.1047 13.6025 22.2907C13.9205 22.4737 14.285 22.5652 14.696 22.5652C15.107 22.5652 15.473 22.4737 15.794 22.2907C16.112 22.1047 16.3625 21.8512 16.5455 21.5302C16.7285 21.2062 16.82 20.8387 16.82 20.4277ZM17 16.2066L12.392 16.2066L12.392 15.8646L13.0805 15.8646C12.8045 15.7326 12.5975 15.5541 12.4595 15.3291C12.3185 15.1041 12.248 14.8341 12.248 14.5191C12.248 14.3931 12.2585 14.2686 12.2795 14.1456C12.3005 14.0196 12.3305 13.9086 12.3695 13.8126L12.6575 13.9521C12.6245 14.0361 12.599 14.1321 12.581 14.2401C12.56 14.3451 12.5495 14.4471 12.5495 14.5461C12.5495 14.7711 12.608 14.9841 12.725 15.1851C12.839 15.3861 12.9875 15.5496 13.1705 15.6756C13.3535 15.8016 13.5485 15.8646 13.7555 15.8646L17 15.8646L17 16.2066ZM17 12.4054L12.392 12.4054L12.392 12.0634L17 12.0634L17 12.4054ZM11.4875 12.2344C11.4875 12.2824 11.4755 12.3274 11.4515 12.3694C11.4275 12.4084 11.396 12.4399 11.357 12.4639C11.315 12.4879 11.27 12.4999 11.222 12.4999C11.174 12.4999 11.1305 12.4879 11.0915 12.4639C11.0525 12.4399 11.0225 12.4084 11.0015 12.3694C10.9775 12.3274 10.9655 12.2824 10.9655 12.2344C10.9655 12.1864 10.9775 12.1444 11.0015 12.1084C11.0225 12.0694 11.0525 12.0379 11.0915 12.0139C11.1305 11.9899 11.174 11.9779 11.222 11.9779C11.27 11.9779 11.315 11.9899 11.357 12.0139C11.396 12.0379 11.4275 12.0694 11.4515 12.1084C11.4755 12.1444 11.4875 12.1864 11.4875 12.2344ZM17.144 7.85094C17.144 8.33094 17.0375 8.75694 16.8245 9.12894C16.6085 9.50094 16.319 9.79344 15.956 10.0064C15.59 10.2164 15.179 10.3214 14.723 10.3214C14.375 10.3214 14.051 10.2599 13.751 10.1369C13.448 10.0109 13.1855 9.83844 12.9635 9.61944C12.7385 9.40044 12.563 9.14844 12.437 8.86344C12.311 8.57544 12.248 8.26944 12.248 7.94544C12.248 7.52244 12.3485 7.13694 12.5495 6.78894C12.7505 6.44094 13.025 6.15894 13.373 5.94294C13.721 5.72394 14.1185 5.59944 14.5655 5.56944C14.5925 5.56644 14.6165 5.56644 14.6375 5.56944C14.6585 5.56944 14.6825 5.56944 14.7095 5.56944L14.7095 9.99294C15.1205 9.99294 15.488 9.90144 15.812 9.71844C16.133 9.53244 16.385 9.27744 16.568 8.95344C16.751 8.62944 16.8425 8.25894 16.8425 7.84194C16.8425 7.45194 16.7585 7.09794 16.5905 6.77994C16.4225 6.45894 16.187 6.20244 15.884 6.01044L16.037 5.74944C16.388 5.96844 16.661 6.26244 16.856 6.63144C17.048 6.99744 17.144 7.40394 17.144 7.85094ZM14.426 9.97944L14.426 5.91144C14.069 5.94744 13.7495 6.06144 13.4675 6.25344C13.1825 6.44244 12.959 6.68394 12.797 6.97794C12.632 7.26894 12.5495 7.58844 12.5495 7.93644C12.5495 8.29044 12.632 8.61594 12.797 8.91294C12.959 9.20694 13.181 9.44844 13.463 9.63744C13.745 9.82644 14.066 9.94044 14.426 9.97944ZM17.144 2.78527C17.144 3.16327 17.039 3.49477 16.829 3.77977C16.619 4.06177 16.3205 4.27327 15.9335 4.41427L15.794 4.16677C16.127 4.04377 16.388 3.86227 16.577 3.62227C16.763 3.37927 16.856 3.10177 16.856 2.78977C16.856 2.56777 16.808 2.36227 16.712 2.17327C16.616 1.98427 16.481 1.83277 16.307 1.71877C16.13 1.60477 15.9215 1.54777 15.6815 1.54777C15.4685 1.54777 15.302 1.59727 15.182 1.69627C15.062 1.79227 14.96 1.93327 14.876 2.11927C14.792 2.30227 14.699 2.52577 14.597 2.78977C14.519 2.99077 14.432 3.18727 14.336 3.37927C14.237 3.56827 14.1125 3.72427 13.9625 3.84727C13.8125 3.97027 13.6205 4.03177 13.3865 4.03177C13.1675 4.03177 12.9725 3.97477 12.8015 3.86077C12.6305 3.74677 12.4955 3.59227 12.3965 3.39727C12.2975 3.19927 12.248 2.97727 12.248 2.73127C12.248 2.46427 12.3125 2.22277 12.4415 2.00677C12.5705 1.78777 12.752 1.61077 12.986 1.47577L13.148 1.70077C12.737 1.92577 12.5315 2.26927 12.5315 2.73127C12.5315 3.01927 12.611 3.25477 12.77 3.43777C12.926 3.62077 13.13 3.71227 13.382 3.71227C13.559 3.71227 13.703 3.66427 13.814 3.56827C13.925 3.47227 14.0195 3.34177 14.0975 3.17677C14.1725 3.01177 14.249 2.82727 14.327 2.62327C14.438 2.33827 14.5445 2.09227 14.6465 1.88527C14.7485 1.67527 14.8775 1.51327 15.0335 1.39927C15.1865 1.28227 15.398 1.22377 15.668 1.22377C15.965 1.22377 16.2245 1.29277 16.4465 1.43077C16.6685 1.56877 16.841 1.75627 16.964 1.99327C17.084 2.22727 17.144 2.49127 17.144 2.78527Z" fill="black"/>
<path d="M14 162C13.6216 162 12.0556 160.87 12.0556 157.639L12.0556 153.466L8.51667 151.882L8.51667 151.921C8.51667 152.348 8.16845 152.694 7.73889 152.694L6.76667 152.694C6.3371 152.694 5.98889 152.348 5.98889 151.921L5.98889 150.839L0.0958535 148.406C0.037824 148.382 2.41737e-07 148.326 2.47195e-07 148.264L2.90896e-07 147.764C2.98854e-07 147.673 0.0788023 147.601 0.170024 147.61L8.32222 148.367L12.0556 148.367L12.5222 139.79L9.47964 137.75C9.43679 137.721 9.41111 137.673 9.41111 137.622L9.41111 137.074C9.41111 136.979 9.49669 136.906 9.59118 136.921L13.0667 137.472L13.7217 136.171C13.8364 135.943 14.1636 135.943 14.2783 136.171L14.9333 137.472L18.4088 136.921C18.5033 136.906 18.5889 136.979 18.5889 137.074L18.5889 137.622C18.5889 137.673 18.5632 137.721 18.5204 137.75L15.4778 139.79L15.9444 148.367L19.6778 148.367L27.83 147.61C27.9212 147.601 28 147.673 28 147.764L28 148.264C28 148.326 27.9622 148.382 27.9041 148.406L22.0111 150.839L22.0111 151.921C22.0111 152.348 21.6629 152.694 21.2333 152.694L20.2611 152.694C19.8315 152.694 19.4833 152.348 19.4833 151.921L19.4833 151.882L15.9444 153.466L15.9444 157.639C15.9444 160.87 14.3784 162 14 162Z" fill="black"/>
<circle cx="14" cy="130" r="1" fill="black"/>
<circle cx="14" cy="83" r="1" fill="black"/>
<circle cx="14" cy="106" r="1" fill="black"/>
<circle cx="14" cy="59" r="1" fill="black"/>
<circle cx="14" cy="122" r="1" fill="black"/>
<circle cx="14" cy="75" r="1" fill="black"/>
<circle cx="14" cy="98" r="1" fill="black"/>
<circle cx="14" cy="114" r="1" fill="black"/>
<circle cx="14" cy="67" r="1" fill="black"/>
<circle cx="14" cy="90" r="1" fill="black"/>
</svg>
