<svg width="110" height="62" viewBox="0 0 110 62" fill="none" xmlns="http://www.w3.org/2000/svg">
<g filter="url(#filter0_d_365_146)">
<path d="M85 27C85 27.1622 84.5217 27.8333 83.1548 27.8333L81.3896 27.8333L80.7195 29.35L80.7358 29.35C80.9163 29.35 81.0627 29.4992 81.0627 29.6833L81.0627 30.1C81.0627 30.2841 80.9163 30.4333 80.7358 30.4333L80.2782 30.4333L79.2488 32.9589C79.2387 32.9838 79.2149 33 79.1885 33L78.977 33C78.9385 33 78.9083 32.9662 78.9119 32.9271L79.2321 29.4333L79.2321 27.8333L75.6036 27.6333L74.7404 28.9373C74.7283 28.9557 74.708 28.9667 74.6862 28.9667L74.4544 28.9667C74.4142 28.9667 74.3835 28.93 74.3898 28.8895L74.6229 27.4L74.0723 27.1193C73.9759 27.0701 73.9759 26.9299 74.0723 26.8807L74.6229 26.6L74.3898 25.1105C74.3835 25.07 74.4142 25.0333 74.4544 25.0333L74.6862 25.0333C74.708 25.0333 74.7283 25.0443 74.7404 25.0627L75.6036 26.3667L79.2321 26.1667L79.2321 24.5667L78.9119 21.0729C78.9083 21.0338 78.9385 21 78.977 21L79.1885 21C79.2149 21 79.2387 21.0162 79.2488 21.0411L80.2782 23.5667L80.7358 23.5667C80.9163 23.5667 81.0627 23.7159 81.0627 23.9L81.0627 24.3167C81.0627 24.5008 80.9163 24.65 80.7358 24.65L80.7195 24.65L81.3896 26.1667L83.1548 26.1667C84.5217 26.1667 85 26.8378 85 27Z" fill="white"/>
</g>
<line y1="29" x2="73" y2="29" stroke="white"/>
<line y1="25" x2="73" y2="25" stroke="white"/>
<defs>
<filter id="filter0_d_365_146" x="49" y="0" width="61" height="62" filterUnits="userSpaceOnUse" color-interpolation-filters="sRGB">
<feFlood flood-opacity="0" result="BackgroundImageFix"/>
<feColorMatrix in="SourceAlpha" type="matrix" values="0 0 0 0 0 0 0 0 0 0 0 0 0 0 0 0 0 0 127 0" result="hardAlpha"/>
<feOffset dy="4"/>
<feGaussianBlur stdDeviation="12.5"/>
<feComposite in2="hardAlpha" operator="out"/>
<feColorMatrix type="matrix" values="0 0 0 0 0 0 0 0 0 0 0 0 0 0 0 0 0 0 0.25 0"/>
<feBlend mode="normal" in2="BackgroundImageFix" result="effect1_dropShadow_365_146"/>
<feBlend mode="normal" in="SourceGraphic" in2="effect1_dropShadow_365_146" result="shape"/>
</filter>
</defs>
</svg>
