<?xml version="1.0" encoding="utf-8"?>
<!-- Generator: Adobe Illustrator 25.0.0, SVG Export Plug-In . SVG Version: 6.00 Build 0)  -->
<svg version="1.1" id="Ebene_1" xmlns="http://www.w3.org/2000/svg" xmlns:xlink="http://www.w3.org/1999/xlink" x="0px" y="0px"
	 viewBox="0 0 141.73 77.44" style="enable-background:new 0 0 141.73 77.44;" xml:space="preserve">
<style type="text/css">
	.st0{fill:#FFFFFF;}
</style>
<polygon class="st0" points="60.86,17.02 0,17.02 83,36.18 "/>
<g>
	<path class="st0" d="M74.96,25.59l9.99,8.64c3.8,1.1,56.79-17.2,56.79-17.2H93.55C86.23,17.03,74.96,25.59,74.96,25.59"/>
	<path class="st0" d="M71.93,3.33c8.46,0,15.87,4.4,20.13,11.03h3.88C91.34,5.81,82.31,0,71.93,0C61.58,0,52.58,5.77,47.97,14.28
		l3.89,0C56.11,7.69,63.5,3.33,71.93,3.33"/>
	<path class="st0" d="M94.54,34.97c-3.22,9.41-12.11,16.18-22.61,16.18c-11.92,0-21.78-8.74-23.59-20.15l-3.48-0.8
		c1.47,13.65,13.03,24.28,27.07,24.28c12.77,0,23.45-8.79,26.4-20.65L94.54,34.97z"/>
</g>
<g>
	<path class="st0" d="M15.52,77.44h-2.83l-2.2-8.83h-0.04l-2.16,8.83H5.41L1.97,64.47h2.85l2.05,8.83h0.04l2.25-8.83h2.67l2.22,8.93
		h0.04l2.12-8.93h2.8L15.52,77.44z"/>
	<path class="st0" d="M32.45,64.47h2.92l4.85,12.96h-2.96l-0.98-2.89h-4.85l-1.02,2.89h-2.89L32.45,64.47z M32.17,72.43h3.36
		l-1.63-4.76h-0.04L32.17,72.43z"/>
	<path class="st0" d="M51.39,64.47h2.85v10.57h6.32v2.4h-9.17V64.47z"/>
	<path class="st0" d="M72.2,64.47h5.85c3.23,0,4.49,2.05,4.49,4.16s-1.25,4.16-4.49,4.16h-3v4.65H72.2V64.47z M75.05,70.57h2.22
		c1.33,0,2.51-0.29,2.51-1.94s-1.18-1.94-2.51-1.94h-2.22V70.57z"/>
</g>
<g>
	<path class="st0" d="M98.24,64.47h1.38l5.08,12.96h-1.33l-1.58-4.03h-5.9l-1.56,4.03h-1.33L98.24,64.47z M96.28,72.35h5.1
		l-2.51-6.65L96.28,72.35z"/>
	<path class="st0" d="M116.02,64.47h1.23v12.96h-1.23V64.47z"/>
	<path class="st0" d="M130,64.47h5.94c2.14,0,3.94,1.04,3.94,3.38c0,1.63-0.85,2.98-2.52,3.3v0.04c1.69,0.22,2.18,1.38,2.27,2.92
		c0.05,0.89,0.05,2.67,0.6,3.32h-1.36c-0.31-0.51-0.31-1.47-0.35-2.02c-0.11-1.82-0.25-3.83-2.6-3.74h-4.68v5.76H130V64.47z
		 M131.23,70.63h4.61c1.51,0,2.8-0.94,2.8-2.52c0-1.58-0.94-2.58-2.8-2.58h-4.61V70.63z"/>
</g>
</svg>
