<svg width="74" height="64" viewBox="0 0 74 64" fill="none" xmlns="http://www.w3.org/2000/svg">
<path d="M58.48 63.4C53.68 63.4 49.7333 61.8533 46.64 58.76C43.6533 55.6667 42.16 51.1333 42.16 45.16C42.16 37.5867 44.5067 29.5867 49.2 21.16C53.8933 12.7333 59.6 5.79999 66.32 0.359978L71.76 5.31998C69.9467 7.34665 68.2933 9.90666 66.8 13C65.3067 16.0933 64.0267 19.4 62.96 22.92C62 26.44 61.4133 30.0133 61.2 33.64C65.04 34.28 68.1333 35.9867 70.48 38.76C72.8267 41.4267 74 44.6267 74 48.36C74 52.7333 72.56 56.36 69.68 59.24C66.8 62.0133 63.0667 63.4 58.48 63.4ZM17.2 63.4C12.2933 63.4 8.34667 61.8533 5.36 58.76C2.37333 55.6667 0.880002 51.1333 0.880002 45.16C0.880002 37.5867 3.17333 29.5867 7.76 21.16C12.4533 12.7333 18.2133 5.79999 25.04 0.359978L30.48 5.31998C28.7733 7.34665 27.12 9.90666 25.52 13C24.0267 16.0933 22.7467 19.4 21.68 22.92C20.72 26.44 20.1333 30.0133 19.92 33.64C23.76 34.28 26.8533 35.9867 29.2 38.76C31.5467 41.4267 32.72 44.6267 32.72 48.36C32.72 52.7333 31.28 56.36 28.4 59.24C25.6267 62.0133 21.8933 63.4 17.2 63.4Z" fill="#BE3232"/>
</svg>
