<svg width="28" height="177" viewBox="0 0 28 177" fill="none" xmlns="http://www.w3.org/2000/svg">
<path d="M17.144 65.498C17.144 66.146 16.916 66.704 16.46 67.172L16.1675 66.992C16.5995 66.581 16.8155 66.08 16.8155 65.489C16.8155 64.895 16.6385 64.4375 16.2845 64.1165C15.9305 63.7925 15.4295 63.6305 14.7815 63.6305L9.575 63.6305L9.575 63.284L14.912 63.284C15.611 63.284 16.1585 63.479 16.5545 63.869C16.9475 64.259 17.144 64.802 17.144 65.498ZM17.144 59.0479C17.144 59.4829 17.039 59.8744 16.829 60.2224C16.616 60.5704 16.325 60.8449 15.956 61.0459C15.587 61.2469 15.167 61.3474 14.696 61.3474C14.222 61.3474 13.802 61.2469 13.436 61.0459C13.067 60.8449 12.7775 60.5719 12.5675 60.2269C12.3545 59.8789 12.248 59.4859 12.248 59.0479C12.248 58.5919 12.362 58.1824 12.59 57.8194C12.815 57.4534 13.1255 57.1849 13.5215 57.0139L12.392 57.0139L12.392 56.6719L17 56.6719L17 57.0139L15.866 57.0139C16.265 57.2029 16.5785 57.4774 16.8065 57.8374C17.0315 58.1944 17.144 58.5979 17.144 59.0479ZM16.8335 58.9984C16.8335 58.6054 16.7435 58.2589 16.5635 57.9589C16.3805 57.6559 16.127 57.4189 15.803 57.2479C15.479 57.0739 15.11 56.9869 14.696 56.9869C14.279 56.9869 13.91 57.0724 13.589 57.2434C13.265 57.4144 13.013 57.6514 12.833 57.9544C12.65 58.2574 12.5585 58.6054 12.5585 58.9984C12.5585 59.3854 12.65 59.7304 12.833 60.0334C13.013 60.3364 13.265 60.5749 13.589 60.7489C13.91 60.9229 14.279 61.0099 14.696 61.0099C15.11 61.0099 15.479 60.9229 15.803 60.7489C16.124 60.5749 16.376 60.3364 16.559 60.0334C16.742 59.7304 16.8335 59.3854 16.8335 58.9984ZM17 54.5943L12.392 54.5943L12.392 54.2523L13.0715 54.2523C12.8495 54.1503 12.6575 53.9688 12.4955 53.7078C12.3305 53.4438 12.248 53.1078 12.248 52.6998C12.248 52.3428 12.32 52.0383 12.464 51.7863C12.608 51.5343 12.821 51.3423 13.103 51.2103C13.385 51.0753 13.7315 51.0078 14.1425 51.0078L17 51.0078L17 51.3498L14.192 51.3498C13.655 51.3498 13.247 51.4728 12.968 51.7188C12.689 51.9618 12.5495 52.3083 12.5495 52.7583C12.5495 53.0733 12.6125 53.3433 12.7385 53.5683C12.8615 53.7903 13.025 53.9598 13.229 54.0768C13.43 54.1938 13.646 54.2523 13.877 54.2523L17 54.2523L17 54.5943ZM17.144 46.8802C17.144 47.3602 17.0375 47.7862 16.8245 48.1582C16.6085 48.5302 16.319 48.8227 15.956 49.0357C15.59 49.2457 15.179 49.3507 14.723 49.3507C14.375 49.3507 14.051 49.2892 13.751 49.1662C13.448 49.0402 13.1855 48.8677 12.9635 48.6487C12.7385 48.4297 12.563 48.1777 12.437 47.8927C12.311 47.6047 12.248 47.2987 12.248 46.9747C12.248 46.5517 12.3485 46.1662 12.5495 45.8182C12.7505 45.4702 13.025 45.1882 13.373 44.9722C13.721 44.7532 14.1185 44.6287 14.5655 44.5987C14.5925 44.5957 14.6165 44.5957 14.6375 44.5987C14.6585 44.5987 14.6825 44.5987 14.7095 44.5987L14.7095 49.0222C15.1205 49.0222 15.488 48.9307 15.812 48.7477C16.133 48.5617 16.385 48.3067 16.568 47.9827C16.751 47.6587 16.8425 47.2882 16.8425 46.8712C16.8425 46.4812 16.7585 46.1272 16.5905 45.8092C16.4225 45.4882 16.187 45.2317 15.884 45.0397L16.037 44.7787C16.388 44.9977 16.661 45.2917 16.856 45.6607C17.048 46.0267 17.144 46.4332 17.144 46.8802ZM14.426 49.0087L14.426 44.9407C14.069 44.9767 13.7495 45.0907 13.4675 45.2827C13.1825 45.4717 12.959 45.7132 12.797 46.0072C12.632 46.2982 12.5495 46.6177 12.5495 46.9657C12.5495 47.3197 12.632 47.6452 12.797 47.9422C12.959 48.2362 13.181 48.4777 13.463 48.6667C13.745 48.8557 14.066 48.9697 14.426 49.0087ZM17 39.047L9.908 39.047L9.908 41.4815L9.575 41.4815L9.575 36.2615L9.908 36.2615L9.908 38.696L17 38.696L17 39.047ZM17 35.1705L12.392 35.1705L12.392 34.8285L13.0805 34.8285C12.8045 34.6965 12.5975 34.518 12.4595 34.293C12.3185 34.068 12.248 33.798 12.248 33.483C12.248 33.357 12.2585 33.2325 12.2795 33.1095C12.3005 32.9835 12.3305 32.8725 12.3695 32.7765L12.6575 32.916C12.6245 33 12.599 33.096 12.581 33.204C12.56 33.309 12.5495 33.411 12.5495 33.51C12.5495 33.735 12.608 33.948 12.725 34.149C12.839 34.35 12.9875 34.5135 13.1705 34.6395C13.3535 34.7655 13.5485 34.8285 13.7555 34.8285L17 34.8285L17 35.1705ZM17.144 29.4551C17.144 29.8901 17.039 30.2816 16.829 30.6296C16.616 30.9776 16.325 31.2521 15.956 31.4531C15.587 31.6541 15.167 31.7546 14.696 31.7546C14.222 31.7546 13.802 31.6541 13.436 31.4531C13.067 31.2521 12.7775 30.9791 12.5675 30.6341C12.3545 30.2861 12.248 29.8931 12.248 29.4551C12.248 28.9991 12.362 28.5896 12.59 28.2266C12.815 27.8606 13.1255 27.5921 13.5215 27.4211L12.392 27.4211L12.392 27.0791L17 27.0791L17 27.4211L15.866 27.4211C16.265 27.6101 16.5785 27.8846 16.8065 28.2446C17.0315 28.6016 17.144 29.0051 17.144 29.4551ZM16.8335 29.4056C16.8335 29.0126 16.7435 28.6661 16.5635 28.3661C16.3805 28.0631 16.127 27.8261 15.803 27.6551C15.479 27.4811 15.11 27.3941 14.696 27.3941C14.279 27.3941 13.91 27.4796 13.589 27.6506C13.265 27.8216 13.013 28.0586 12.833 28.3616C12.65 28.6646 12.5585 29.0126 12.5585 29.4056C12.5585 29.7926 12.65 30.1376 12.833 30.4406C13.013 30.7436 13.265 30.9821 13.589 31.1561C13.91 31.3301 14.279 31.4171 14.696 31.4171C15.11 31.4171 15.479 31.3301 15.803 31.1561C16.124 30.9821 16.376 30.7436 16.559 30.4406C16.742 30.1376 16.8335 29.7926 16.8335 29.4056ZM17 23.4797L12.392 25.6397L12.392 25.2437L16.451 23.3717L12.392 21.4997L12.392 21.1037L17 23.2592L17 23.4797ZM17.144 17.5248C17.144 18.0048 17.0375 18.4308 16.8245 18.8028C16.6085 19.1748 16.319 19.4673 15.956 19.6803C15.59 19.8903 15.179 19.9953 14.723 19.9953C14.375 19.9953 14.051 19.9338 13.751 19.8108C13.448 19.6848 13.1855 19.5123 12.9635 19.2933C12.7385 19.0743 12.563 18.8223 12.437 18.5373C12.311 18.2493 12.248 17.9433 12.248 17.6193C12.248 17.1963 12.3485 16.8108 12.5495 16.4628C12.7505 16.1148 13.025 15.8328 13.373 15.6168C13.721 15.3978 14.1185 15.2733 14.5655 15.2433C14.5925 15.2403 14.6165 15.2403 14.6375 15.2433C14.6585 15.2433 14.6825 15.2433 14.7095 15.2433L14.7095 19.6668C15.1205 19.6668 15.488 19.5753 15.812 19.3923C16.133 19.2063 16.385 18.9513 16.568 18.6273C16.751 18.3033 16.8425 17.9328 16.8425 17.5158C16.8425 17.1258 16.7585 16.7718 16.5905 16.4538C16.4225 16.1328 16.187 15.8763 15.884 15.6843L16.037 15.4233C16.388 15.6423 16.661 15.9363 16.856 16.3053C17.048 16.6713 17.144 17.0778 17.144 17.5248ZM14.426 19.6533L14.426 15.5853C14.069 15.6213 13.7495 15.7353 13.4675 15.9273C13.1825 16.1163 12.959 16.3578 12.797 16.6518C12.632 16.9428 12.5495 17.2623 12.5495 17.6103C12.5495 17.9643 12.632 18.2898 12.797 18.5868C12.959 18.8808 13.181 19.1223 13.463 19.3113C13.745 19.5003 14.066 19.6143 14.426 19.6533ZM17 13.5845L9.26 13.5845L9.26 13.2425L17 13.2425L17 13.5845ZM17.144 10.0245C17.144 10.4025 17.039 10.734 16.829 11.019C16.619 11.301 16.3205 11.5125 15.9335 11.6535L15.794 11.406C16.127 11.283 16.388 11.1015 16.577 10.8615C16.763 10.6185 16.856 10.341 16.856 10.029C16.856 9.80703 16.808 9.60153 16.712 9.41253C16.616 9.22353 16.481 9.07203 16.307 8.95803C16.13 8.84403 15.9215 8.78703 15.6815 8.78703C15.4685 8.78703 15.302 8.83653 15.182 8.93553C15.062 9.03153 14.96 9.17253 14.876 9.35853C14.792 9.54153 14.699 9.76503 14.597 10.029C14.519 10.23 14.432 10.4265 14.336 10.6185C14.237 10.8075 14.1125 10.9635 13.9625 11.0865C13.8125 11.2095 13.6205 11.271 13.3865 11.271C13.1675 11.271 12.9725 11.214 12.8015 11.1C12.6305 10.986 12.4955 10.8315 12.3965 10.6365C12.2975 10.4385 12.248 10.2165 12.248 9.97053C12.248 9.70353 12.3125 9.46203 12.4415 9.24603C12.5705 9.02703 12.752 8.85003 12.986 8.71503L13.148 8.94003C12.737 9.16503 12.5315 9.50853 12.5315 9.97053C12.5315 10.2585 12.611 10.494 12.77 10.677C12.926 10.86 13.13 10.9515 13.382 10.9515C13.559 10.9515 13.703 10.9035 13.814 10.8075C13.925 10.7115 14.0195 10.581 14.0975 10.416C14.1725 10.251 14.249 10.0665 14.327 9.86253C14.438 9.57753 14.5445 9.33153 14.6465 9.12453C14.7485 8.91453 14.8775 8.75253 15.0335 8.63853C15.1865 8.52153 15.398 8.46303 15.668 8.46303C15.965 8.46303 16.2245 8.53203 16.4465 8.67003C16.6685 8.80803 16.841 8.99553 16.964 9.23253C17.084 9.46653 17.144 9.73053 17.144 10.0245ZM17 6.773L9.26 6.773L9.26 6.431L14.363 6.431L12.392 4.532L12.392 4.082L14.5205 6.116L17 3.9695L17 4.406L14.6555 6.431L17 6.431L17 6.773ZM17 2.1984L12.392 2.1984L12.392 1.8564L17 1.8564L17 2.1984ZM11.4875 2.0274C11.4875 2.0754 11.4755 2.1204 11.4515 2.1624C11.4275 2.2014 11.396 2.2329 11.357 2.2569C11.315 2.2809 11.27 2.2929 11.222 2.2929C11.174 2.2929 11.1305 2.2809 11.0915 2.2569C11.0525 2.2329 11.0225 2.2014 11.0015 2.1624C10.9775 2.1204 10.9655 2.0754 10.9655 2.0274C10.9655 1.9794 10.9775 1.9374 11.0015 1.9014C11.0225 1.8624 11.0525 1.8309 11.0915 1.8069C11.1305 1.7829 11.174 1.7709 11.222 1.7709C11.27 1.7709 11.315 1.7829 11.357 1.8069C11.396 1.8309 11.4275 1.8624 11.4515 1.9014C11.4755 1.9374 11.4875 1.9794 11.4875 2.0274Z" fill="black"/>
<path d="M14 177C13.6216 177 12.0556 175.87 12.0556 172.639L12.0556 168.466L8.51667 166.882L8.51667 166.921C8.51667 167.348 8.16845 167.694 7.73889 167.694L6.76667 167.694C6.3371 167.694 5.98889 167.348 5.98889 166.921L5.98889 165.839L0.0958531 163.406C0.0378239 163.382 1.19541e-06 163.326 1.20087e-06 163.264L1.24457e-06 162.764C1.25253e-06 162.673 0.0788015 162.601 0.170024 162.61L8.32222 163.367L12.0556 163.367L12.5222 154.79L9.47964 152.75C9.43678 152.721 9.41111 152.673 9.41111 152.622L9.41111 152.074C9.41111 151.979 9.49669 151.906 9.59118 151.921L13.0667 152.472L13.7217 151.171C13.8364 150.943 14.1636 150.943 14.2783 151.171L14.9333 152.472L18.4088 151.921C18.5033 151.906 18.5889 151.979 18.5889 152.074L18.5889 152.622C18.5889 152.673 18.5632 152.721 18.5204 152.75L15.4778 154.79L15.9444 163.367L19.6778 163.367L27.83 162.61C27.9212 162.601 28 162.673 28 162.764L28 163.264C28 163.326 27.9622 163.382 27.9041 163.406L22.0111 165.839L22.0111 166.921C22.0111 167.348 21.6629 167.694 21.2333 167.694L20.2611 167.694C19.8315 167.694 19.4833 167.348 19.4833 166.921L19.4833 166.882L15.9444 168.466L15.9444 172.639C15.9444 175.87 14.3784 177 14 177Z" fill="black"/>
<circle cx="14" cy="145" r="1" fill="black"/>
<circle cx="14" cy="98" r="1" fill="black"/>
<circle cx="14" cy="121" r="1" fill="black"/>
<circle cx="14" cy="74" r="1" fill="black"/>
<circle cx="14" cy="137" r="1" fill="black"/>
<circle cx="14" cy="90" r="1" fill="black"/>
<circle cx="14" cy="113" r="1" fill="black"/>
<circle cx="14" cy="129" r="1" fill="black"/>
<circle cx="14" cy="82" r="1" fill="black"/>
<circle cx="14" cy="105" r="1" fill="black"/>
</svg>
