<svg width="105" height="21" viewBox="0 0 105 21" fill="none" xmlns="http://www.w3.org/2000/svg">
<path d="M10.5 0L12.8574 7.25532H20.4861L14.3143 11.7394L16.6717 18.9947L10.5 14.5106L4.32825 18.9947L6.68565 11.7394L0.513906 7.25532H8.1426L10.5 0Z" fill="#FFD465"/>
<path d="M31.5 0L33.8574 7.25532H41.4861L35.3143 11.7394L37.6717 18.9947L31.5 14.5106L25.3283 18.9947L27.6857 11.7394L21.5139 7.25532H29.1426L31.5 0Z" fill="#FFD465"/>
<path d="M52.5 0L54.8574 7.25532H62.4861L56.3143 11.7394L58.6717 18.9947L52.5 14.5106L46.3283 18.9947L48.6857 11.7394L42.5139 7.25532H50.1426L52.5 0Z" fill="#FFD465"/>
<path d="M73.5 0L75.8574 7.25532H83.4861L77.3143 11.7394L79.6717 18.9947L73.5 14.5106L67.3283 18.9947L69.6857 11.7394L63.5139 7.25532H71.1426L73.5 0Z" fill="#FFD465"/>
<path d="M94.5 0L96.8574 7.25532H104.486L98.3143 11.7394L100.672 18.9947L94.5 14.5106L88.3283 18.9947L90.6857 11.7394L84.5139 7.25532H92.1426L94.5 0Z" fill="#FFD465"/>
</svg>
